<?xml version="1.0" encoding="utf-8"?>
<!-- Generator: Adobe Illustrator 18.1.1, SVG Export Plug-In . SVG Version: 6.00 Build 0)  -->
<svg version="1.1" id="Logomark_black" xmlns="http://www.w3.org/2000/svg" xmlns:xlink="http://www.w3.org/1999/xlink" x="0px"
	 y="0px" viewBox="110 110 226.7 225.6" enable-background="new 0 0 446.7 445.6" xml:space="preserve">
<g>
	<path fill="#1C1F2A" d="M223.3,111.8C161.9,111.8,112,161.6,112,223c0,61.5,49.8,111.3,111.3,111.3S334.6,284.5,334.6,223
		C334.6,161.6,284.8,111.8,223.3,111.8z"/>
	<path fill="#FFFFFF" d="M239.9,262.4c0,2.1-1.1,3.2-3.2,3.2h-20c-2.1,0-3.2-1.1-3.2-3.2v-48.2h-15.3c-2.1,0-3.2-1.1-3.2-3.2v-20
		c0-2.1,1.1-3.2,3.2-3.2h39c2.1,0,2.6,1.1,2.6,2.6V262.4z"/>
</g>
</svg>
