<svg xmlns="http://www.w3.org/2000/svg" xml:space="preserve" id="Layer_1" x="0" y="0" style="enable-background:new 0 0 779.9 133.7" version="1.1" viewBox="0 0 779.9 133.7"><style>.st0{fill:#fff}</style><path d="M59.9 0h18.5v133.7H59.9zM256 125.8 191.5 0h-35.4v133.7h18.5V8.2l64.3 125.5h35.5V0H256zM387.8 0l32.5 69.4h-67l-32 64.3h21.6l21.6-46.4h64.3l21.7 46.4h21.6L409.3 0zM699.1 0h18.5v133.7h-18.5zM634.8 44c0-25.8-21-44-43.7-44h-69.6v133.7H540V87.3h47.4l23.2 46.4h21l-24.4-49.2c20.4-8.6 27.6-26.4 27.6-40.5zM540 69.4V17.9h50.9c14.2 0 25.7 11.6 25.7 25.9 0 14.2-11.5 25.6-25.7 25.6H540zM777.4 121.6v12.1h2.5v-15.1h-4l-4.4 11.3-.2-.4-4.2-10.9h-4v15.1h2.4v-12.1h.4l.1.1 4.6 12h1.8l4.6-12.1zM759.5 118.6h-12.1v2.1h4.8v13h2.6v-13h4.7z" class="st0"/></svg>