<svg xmlns="http://www.w3.org/2000/svg" width="128" height="28" fill="none"><g clip-path="url(#clip0_163_2431)" fill="#fff"><path d="M23.52 19.048h7.766v2.216H20.945V6.09h10.161v2.217H23.52v4.046h7.448v2.217H23.52v4.478zM33.041 16.632h2.676c.253 1.857 1.696 2.775 3.553 2.775 2.415 0 3.753-.957 3.753-2.336 0-1.438-1.097-1.817-3.334-2.315l-2.036-.44c-2.456-.539-4.153-1.777-4.153-4.113 0-2.515 2.496-4.352 5.67-4.352 3.454 0 5.59 1.737 6.03 4.234h-2.676c-.439-1.499-1.677-2.137-3.354-2.137-1.717 0-3.094.778-3.094 2.016 0 1.257.898 1.677 3.114 2.177l2.016.438c2.955.66 4.373 1.838 4.373 4.213 0 2.855-2.53 4.711-6.37 4.711-3.334.005-5.73-1.836-6.168-4.87zM48.132 21.264V6.09h2.576v15.174h-2.576zM56.756 19.048h6.768v2.216H54.18V6.09h2.576v12.958zM65.599 21.264V6.09h2.575v15.174h-2.575zM74.222 19.048h7.767v2.216H71.647V6.09H81.81v2.217h-7.587v4.046h7.448v2.217h-7.448v4.478zM95.862 6.091h2.576v15.175h-5.13L87.377 6.392v14.872h-2.575V6.09h5.13l5.93 14.873V6.091zM101.07 13.677c0-4.75 3.095-7.826 7.247-7.826 3.535 0 6.15 2.076 6.948 5.29h-2.695c-.632-1.815-1.956-3.193-4.253-3.193-2.774 0-4.591 2.316-4.591 5.73 0 3.434 1.917 5.729 4.571 5.729 2.237 0 3.694-1.177 4.393-3.213h2.676c-.999 3.573-3.595 5.31-7.069 5.31-4.092.004-7.227-3.075-7.227-7.827zM120.234 19.048H128v2.216h-10.341V6.09h10.161v2.217h-7.587v4.046h7.447v2.217h-7.447l.001 4.478zM14.954 14.918c1.933-.657 3.064-2.188 3.064-4.195 0-2.808-2.189-4.632-5.69-4.632H6.492v15.175h2.59v-5.944h3.21l3.5 5.944h2.955l-3.793-6.348zm-2.553-1.787h-3.32V8.28h3.32c1.86 0 2.954.91 2.954 2.442 0 1.531-1.094 2.408-2.954 2.408z"/><path d="M0 0v27.356h22.386l-1.308-2.188H2.59V2.188h4.762L6.044 0H0z"/></g><defs><clipPath id="clip0_163_2431"><path fill="#fff" d="M0 0h128v27.356H0z"/></clipPath></defs></svg>
