<svg xmlns="http://www.w3.org/2000/svg" width="182.71" height="70"><defs><linearGradient id="b" y1=".5" x2="1" y2=".5" gradientUnits="objectBoundingBox"><stop offset="0" stop-color="#76e3d6"/><stop offset="1" stop-color="#2f5ede"/></linearGradient><filter id="a"><feColorMatrix values="0 1 0 0 0 0 1 0 0 0 0 1 0 0 0 0 0 0 1 0"/></filter></defs><g data-name="Group 347" transform="translate(-1243.225 -454)" filter="url(#a)"><g data-name="Group 359" fill="#fff"><path data-name="Path 1166" d="M1346.227 485.195v-19.9h4.954a11.213 11.213 0 014.313.73 6.768 6.768 0 012.809 2.1 8.6 8.6 0 011.526 3.3 18.414 18.414 0 01.464 4.313 12.94 12.94 0 01-.663 4.423 8.113 8.113 0 01-1.771 2.933 6.425 6.425 0 01-2.521 1.614 8.919 8.919 0 01-2.919.487zm-6.944-25.743v31.582h13.624a15.118 15.118 0 006.3-1.216 12.54 12.54 0 004.467-3.34 14.015 14.015 0 002.676-5.042 21.879 21.879 0 00.885-6.369 19.681 19.681 0 00-1.076-6.857 13.477 13.477 0 00-3.008-4.866 12.338 12.338 0 00-4.556-2.919 16.263 16.263 0 00-5.684-.973zm37.509 21.1h-6.723a10.431 10.431 0 001.062 5.042 9.942 9.942 0 002.986 3.494 12.738 12.738 0 004.335 2.013 19.953 19.953 0 005.065.641 19.446 19.446 0 005.684-.752 12.019 12.019 0 004.114-2.1 8.745 8.745 0 002.5-3.207 9.651 9.651 0 00.84-4.025 7.743 7.743 0 00-1.128-4.357 9.422 9.422 0 00-2.676-2.72 11.764 11.764 0 00-3.118-1.482q-1.57-.464-2.455-.641-2.964-.752-4.8-1.239a17.8 17.8 0 01-2.875-.973 3.158 3.158 0 01-1.393-1.062 2.838 2.838 0 01-.354-1.5 2.969 2.969 0 01.442-1.681 3.841 3.841 0 011.128-1.106 4.5 4.5 0 011.526-.619 8.137 8.137 0 011.681-.177 11.844 11.844 0 012.366.221 5.7 5.7 0 011.924.752 3.908 3.908 0 011.349 1.46 5.584 5.584 0 01.6 2.344h6.723a9.7 9.7 0 00-1.039-4.667 9.062 9.062 0 00-2.809-3.163 11.86 11.86 0 00-4.047-1.791 20.092 20.092 0 00-4.755-.553 16.182 16.182 0 00-4.246.575 11.855 11.855 0 00-3.8 1.769 9.419 9.419 0 00-2.72 2.986 8.27 8.27 0 00-1.039 4.224 7.722 7.722 0 00.818 3.693 7.812 7.812 0 002.145 2.543 11.854 11.854 0 003.008 1.659 30.241 30.241 0 003.45 1.084q1.725.487 3.406.885a21.411 21.411 0 013.008.929 6.49 6.49 0 012.136 1.325 2.771 2.771 0 01.818 2.079 3.052 3.052 0 01-.619 1.968 4.343 4.343 0 01-1.551 1.215 6.926 6.926 0 01-1.99.6 13.834 13.834 0 01-1.99.155 10.557 10.557 0 01-2.654-.332 6.606 6.606 0 01-2.234-1.017 5.025 5.025 0 01-1.526-1.791 5.792 5.792 0 01-.573-2.702zm30.918-6.237v-9.466h5.4a14.545 14.545 0 012.3.177 5.352 5.352 0 011.946.686 3.735 3.735 0 011.349 1.438 5.053 5.053 0 01.509 2.433 5.053 5.053 0 01-.509 2.433 3.735 3.735 0 01-1.349 1.438 5.352 5.352 0 01-1.946.686 14.544 14.544 0 01-2.3.177zm-6.944-14.863v31.582h6.944V479.71h7.3a13.154 13.154 0 005.042-.863 9.434 9.434 0 003.384-2.278 8.721 8.721 0 001.9-3.251 12.011 12.011 0 00.6-3.738 11.944 11.944 0 00-.6-3.76 8.751 8.751 0 00-1.9-3.229 9.434 9.434 0 00-3.384-2.278 13.154 13.154 0 00-5.042-.863z"/><g data-name="Group 359" style="isolation:isolate"><path data-name="Path 1145" d="M1348.99 506.74a2.441 2.441 0 00-.345-.947 3.017 3.017 0 00-.67-.757 3.129 3.129 0 00-1.972-.689 3.518 3.518 0 00-1.723.392 3.243 3.243 0 00-1.149 1.054 4.6 4.6 0 00-.641 1.5 7.486 7.486 0 00-.2 1.742 6.962 6.962 0 00.2 1.676 4.535 4.535 0 00.641 1.464 3.272 3.272 0 001.149 1.043 3.5 3.5 0 001.723.393 2.765 2.765 0 002.154-.851 3.926 3.926 0 00.948-2.213h2.91a6.966 6.966 0 01-.594 2.318 5.423 5.423 0 01-3.1 2.881 6.6 6.6 0 01-2.317.393 6.88 6.88 0 01-2.834-.556 6.159 6.159 0 01-2.106-1.512 6.629 6.629 0 01-1.321-2.259 8.278 8.278 0 01-.459-2.776 8.564 8.564 0 01.459-2.833 6.825 6.825 0 011.321-2.3 6.058 6.058 0 012.106-1.531 7.35 7.35 0 014.968-.23 5.811 5.811 0 011.8.948 5.129 5.129 0 011.311 1.541 5.517 5.517 0 01.651 2.107z"/><path data-name="Path 1146" d="M1353.47 510.876a6.08 6.08 0 01.363-2.154 4.525 4.525 0 012.643-2.7 5.653 5.653 0 012.105-.374 5.729 5.729 0 012.116.374 4.507 4.507 0 012.652 2.7 6.068 6.068 0 01.364 2.154 5.989 5.989 0 01-.364 2.144 4.523 4.523 0 01-2.652 2.69 5.725 5.725 0 01-2.116.373 5.648 5.648 0 01-2.105-.373 4.541 4.541 0 01-2.643-2.69 6 6 0 01-.363-2.144zm2.718 0a5.753 5.753 0 00.115 1.158 3.068 3.068 0 00.393 1.015 2.087 2.087 0 00.737.719 2.253 2.253 0 001.148.267 2.311 2.311 0 001.159-.267 2.074 2.074 0 00.747-.719 3.089 3.089 0 00.393-1.015 5.828 5.828 0 00.114-1.158 5.986 5.986 0 00-.114-1.169 3 3 0 00-.393-1.014 2.186 2.186 0 00-.747-.717 2.242 2.242 0 00-1.159-.278 2.095 2.095 0 00-1.885 1 2.976 2.976 0 00-.393 1.014 5.909 5.909 0 00-.115 1.164z"/><path data-name="Path 1147" d="M1365.473 505.917h2.585v1.378h.057a3.225 3.225 0 011.34-1.244 3.8 3.8 0 011.685-.4 4.624 4.624 0 011.791.3 2.661 2.661 0 011.1.823 3.183 3.183 0 01.565 1.282 8 8 0 01.163 1.676v6.088h-2.719v-5.59a3.406 3.406 0 00-.392-1.829 1.488 1.488 0 00-1.35-.6 1.882 1.882 0 00-1.608.661 3.668 3.668 0 00-.5 2.172v5.189h-2.719z"/><path data-name="Path 1148" d="M1383.566 509.401a1.823 1.823 0 00-2.01-1.7 1.907 1.907 0 00-1.091.3 2.354 2.354 0 00-.718.765 3.306 3.306 0 00-.392 1.044 5.652 5.652 0 00-.115 1.11 5.381 5.381 0 00.115 1.091 3.363 3.363 0 00.373 1 2.149 2.149 0 00.7.738 1.922 1.922 0 001.073.286 2 2 0 001.493-.545 2.553 2.553 0 00.671-1.466h2.623a4.526 4.526 0 01-1.532 3.016 4.915 4.915 0 01-3.236 1.043 5.394 5.394 0 01-2.049-.373 4.481 4.481 0 01-1.57-1.053 4.858 4.858 0 01-1.015-1.609 5.539 5.539 0 01-.364-2.039 6.582 6.582 0 01.335-2.134 4.8 4.8 0 01.986-1.7 4.532 4.532 0 011.589-1.12 5.4 5.4 0 012.144-.4 6.192 6.192 0 011.694.23 4.434 4.434 0 011.445.7 3.882 3.882 0 011.043 1.178 3.678 3.678 0 01.469 1.647z"/><path data-name="Path 1149" d="M1390.056 511.527a2.756 2.756 0 00.67 1.9 2.771 2.771 0 003.178.191 1.711 1.711 0 00.728-.871h2.393a4.636 4.636 0 01-1.761 2.545 5.09 5.09 0 01-2.872.785 5.532 5.532 0 01-2.106-.382 4.481 4.481 0 01-1.589-1.073 4.764 4.764 0 01-1.005-1.646 6.023 6.023 0 01-.355-2.106 5.766 5.766 0 01.364-2.068 4.782 4.782 0 012.633-2.757 5.128 5.128 0 012.058-.4 4.7 4.7 0 012.2.489 4.386 4.386 0 011.541 1.31 5.419 5.419 0 01.872 1.876 7.024 7.024 0 01.191 2.2zm4.422-1.723a3.141 3.141 0 00-.679-1.571 1.911 1.911 0 00-1.484-.536 2.366 2.366 0 00-1.081.22 2.053 2.053 0 00-.689.546 1.993 1.993 0 00-.364.689 3.05 3.05 0 00-.124.651z"/><path data-name="Path 1150" d="M1398.805 505.917h2.585v1.263h.038a3 3 0 011.264-1.168 3.887 3.887 0 011.685-.363 4.3 4.3 0 012.01.44 4.163 4.163 0 011.4 1.169 4.935 4.935 0 01.823 1.694 7.521 7.521 0 01.268 2.019 6.809 6.809 0 01-.268 1.916 4.866 4.866 0 01-.814 1.627 4.12 4.12 0 01-1.359 1.139 4.025 4.025 0 01-1.9.43 3.8 3.8 0 01-1.685-.382 3.273 3.273 0 01-1.283-1.11h-.038v4.709h-2.726zm5 8.117a2.16 2.16 0 001.12-.267 2.184 2.184 0 00.728-.7 2.886 2.886 0 00.392-1 5.889 5.889 0 00.115-1.177 5.5 5.5 0 00-.124-1.168 3.12 3.12 0 00-.411-1.024 2.293 2.293 0 00-.737-.728 2.062 2.062 0 00-1.1-.278 2.1 2.1 0 00-1.12.278 2.239 2.239 0 00-.728.717 2.992 2.992 0 00-.392 1.025 6.088 6.088 0 00-.115 1.178 5.444 5.444 0 00.124 1.177 3.022 3.022 0 00.4 1 2.186 2.186 0 00.728.7 2.156 2.156 0 001.117.267z"/><path data-name="Path 1151" d="M1413.949 505.916h1.991v1.819h-1.991v4.9a.92.92 0 001.149 1.148 4.309 4.309 0 00.842-.076v2.124a6.713 6.713 0 01-.766.077q-.421.019-.823.019a8.076 8.076 0 01-1.2-.085 2.7 2.7 0 01-1-.345 1.838 1.838 0 01-.68-.718 2.525 2.525 0 01-.249-1.206v-5.839h-1.647v-1.819h1.647v-2.968h2.719z"/><path data-name="Path 1152" d="M1419.349 512.598a1.5 1.5 0 00.181.757 1.6 1.6 0 00.47.517 2.037 2.037 0 00.66.3 3.1 3.1 0 00.775.1 2.954 2.954 0 00.6-.067 2.076 2.076 0 00.574-.211 1.315 1.315 0 00.431-.382 1.011 1.011 0 00.172-.6.732.732 0 00-.211-.527 1.867 1.867 0 00-.6-.393 6.153 6.153 0 00-.967-.316q-.574-.143-1.3-.3-.593-.133-1.158-.316a3.952 3.952 0 01-1.005-.478 2.328 2.328 0 01-.708-.747 2.122 2.122 0 01-.268-1.1 3 3 0 01.373-1.56 2.741 2.741 0 01.986-.976 4.325 4.325 0 011.379-.5 8.4 8.4 0 011.57-.144 7.938 7.938 0 011.56.153 4.111 4.111 0 011.35.518 3.1 3.1 0 01.986.966 3.246 3.246 0 01.47 1.522h-2.585a1.191 1.191 0 00-.594-1.063 2.709 2.709 0 00-1.264-.277 4.717 4.717 0 00-.5.028 1.682 1.682 0 00-.488.126 1 1 0 00-.373.277.735.735 0 00-.153.488.747.747 0 00.269.594 2.069 2.069 0 00.7.372 8.669 8.669 0 00.986.259q.555.115 1.13.25a11.309 11.309 0 011.158.325 3.807 3.807 0 011.005.507 2.471 2.471 0 01.709.785 2.309 2.309 0 01.268 1.159 3 3 0 01-1.417 2.7 4.337 4.337 0 01-1.445.575 7.947 7.947 0 01-1.656.172 8.175 8.175 0 01-1.685-.172 4.324 4.324 0 01-1.465-.583 3.217 3.217 0 01-1.5-2.729z"/></g></g><path data-name="Path 1234" d="M589.685 3480.834a4.969 4.969 0 001.718-.3 5.517 5.517 0 003.155-6.948 5.322 5.322 0 00-3.155-3.312 4.887 4.887 0 00-3.443 0 5.514 5.514 0 00-3.157 6.943 5.318 5.318 0 003.169 3.318 4.689 4.689 0 001.646.3zm0-14.056h.031a1.585 1.585 0 001.51-1.641V3449.2a5.464 5.464 0 015.292-5.551h49.952a5.442 5.442 0 015.278 5.537v14.7a1.59 1.59 0 001.545 1.622 1.588 1.588 0 001.548-1.623v-14.71a8.583 8.583 0 00-8.368-8.775h-49.967a8.593 8.593 0 00-8.365 8.787v16.009a1.581 1.581 0 001.544 1.581zm63.61 18.526h-.006a1.586 1.586 0 00-1.544 1.625v14.682a5.467 5.467 0 01-5.289 5.551h-49.94a5.466 5.466 0 01-5.289-5.551v-15.946a1.53 1.53 0 00-2.609-1.2 1.644 1.644 0 00-.474 1.135v16.012a8.6 8.6 0 008.372 8.787h49.961a8.6 8.6 0 008.368-8.787v-14.687a1.6 1.6 0 00-1.548-1.619zm6.157-10.757a1.551 1.551 0 00-.476-.5l-7.8-5.112a1.467 1.467 0 00-2.079.5 1.639 1.639 0 00-.231.849v10.235a1.547 1.547 0 001.5 1.591h.011a1.45 1.45 0 00.8-.241l7.8-5.113a1.649 1.649 0 00.474-2.208zm-41.864 21.889a1.573 1.573 0 01-1.527-1.353l-4.034-24.9-2.7 15.149a1.579 1.579 0 01-1.377 1.32 1.544 1.544 0 01-1.588-1.028l-3.057-8.227h-4.461a1.627 1.627 0 010-3.25h5.519a1.552 1.552 0 011.443 1.035l1.472 3.96 3.293-18.512a1.571 1.571 0 011.522-1.327h.012a1.574 1.574 0 011.514 1.353l3.8 23.46 3.716-28.357a1.576 1.576 0 011.534-1.4 1.576 1.576 0 011.533 1.407l3.285 25.509 2.868-15.021a1.572 1.572 0 011.465-1.3h.053a1.563 1.563 0 011.494 1.2l2.721 10.473 1.115-1.748a1.532 1.532 0 011.286-.72h5.638a1.627 1.627 0 010 3.25h-4.811l-2.544 3.986a1.512 1.512 0 01-1.537.7 1.578 1.578 0 01-1.244-1.176l-1.889-7.27-3.395 17.781a1.559 1.559 0 01-1.567 1.3 1.577 1.577 0 01-1.486-1.406l-3-23.307-3.541 27.021a1.578 1.578 0 01-1.51 1.4z" transform="translate(658.721 -2986.397)" fill="url(#b)"/></g></svg>