<?xml version="1.0" encoding="utf-8"?>
<!-- Generator: Adobe Illustrator 26.2.1, SVG Export Plug-In . SVG Version: 6.00 Build 0)  -->
<svg version="1.1" id="Layer_1" xmlns="http://www.w3.org/2000/svg" xmlns:xlink="http://www.w3.org/1999/xlink" x="0px" y="0px"
	 viewBox="0 0 779.9 133.7" style="enable-background:new 0 0 779.9 133.7;" xml:space="preserve">
<style type="text/css">
	.st0{fill:#fff;}
</style>
<g>
	<g>
		<rect x="59.9" class="st0" width="18.5" height="133.7"/>
		<polygon class="st0" points="256,125.8 191.5,0 174.6,0 169.9,0 156.1,0 156.1,133.7 174.6,133.7 174.6,8.2 238.9,133.7
			256,133.7 260.4,133.7 274.4,133.7 274.4,0 256,0 		"/>
		<polygon class="st0" points="387.8,0 420.3,69.4 353.3,69.4 321.3,133.7 342.9,133.7 364.5,87.3 428.8,87.3 450.5,133.7
			472.1,133.7 409.3,0 		"/>
		<rect x="699.1" class="st0" width="18.5" height="133.7"/>
		<path class="st0" d="M634.8,44c0-25.8-21-44-43.7-44h-69.6v133.7H540V87.3h47.4l23.2,46.4h21l-24.4-49.2
			C627.6,75.9,634.8,58.1,634.8,44z M540,69.4V17.9c0,0,50.3,0,50.9,0c14.2,0,25.7,11.6,25.7,25.9c0,14.2-11.5,25.6-25.7,25.6
			C590.1,69.4,540,69.4,540,69.4z"/>
	</g>
	<g>
		<polygon class="st0" points="777.4,121.6 777.4,133.7 779.9,133.7 779.9,118.6 775.9,118.6 771.5,129.9 771.3,129.5 767.1,118.6
			763.1,118.6 763.1,133.7 765.5,133.7 765.5,121.6 765.9,121.6 766,121.7 770.6,133.7 772.4,133.7 777,121.6 		"/>
		<polygon class="st0" points="759.5,118.6 747.4,118.6 747.4,120.7 752.2,120.7 752.2,133.7 754.8,133.7 754.8,120.7 759.5,120.7
					"/>
	</g>
</g>
</svg>
