<svg width="700pt" height="700pt" viewBox="0 0 700 700" xmlns="http://www.w3.org/2000/svg" fill="#fff"><path d="M350 220.86c-32.668 0-59.141 26.559-59.141 59.141s26.559 59.141 59.141 59.141 59.141-26.559 59.141-59.141S382.582 220.86 350 220.86zm0 102.24c-23.758 0-43.102-19.344-43.102-43.102s19.344-43.102 43.102-43.102 43.102 19.344 43.102 43.102S373.758 323.1 350 323.1z"/><path d="M452.92 342.62l-7.89-7.89c4.75-8.231 8.398-16.97 10.858-26.22h11.113c8.739 0 15.867-7.128 15.867-15.78v-25.454c0-8.738-7.128-15.78-15.867-15.78h-11.113c-2.46-9.165-6.109-17.903-10.859-26.22l7.977-7.976c6.11-6.11 6.11-16.121 0-22.316l-17.988-17.902c-2.969-2.969-6.957-4.668-11.113-4.668h-.086c-4.242 0-8.23 1.613-11.199 4.668l-7.89 7.89a109.044 109.044 0 00-26.22-10.859l-.003-11.199c0-8.738-7.13-15.78-15.867-15.78h-25.371c-8.739 0-15.867 7.128-15.867 15.78v11.2c-9.165 2.46-17.902 6.109-26.22 10.858l-7.89-7.89c-6.195-6.195-16.207-6.195-22.316 0l-18.074 17.988c-6.11 6.195-6.11 16.207 0 22.316l7.977 7.976a109.892 109.892 0 00-10.86 26.133h-11.108c-8.739 0-15.781 7.13-15.781 15.781v25.371a15.752 15.752 0 0015.78 15.781h11.2a109.08 109.08 0 0010.859 26.22l-7.891 7.89c-2.969 2.969-4.668 6.957-4.668 11.199s1.613 8.23 4.668 11.199l17.988 17.988c6.195 6.195 16.207 6.195 22.398 0l7.89-7.89c8.231 4.75 16.97 8.398 26.22 10.858v11.2c0 8.738 7.128 15.78 15.867 15.78h25.37c8.739 0 15.868-7.128 15.868-15.78v-11.2c9.164-2.46 17.902-6.109 26.219-10.859l7.89 7.891c2.969 2.969 6.957 4.668 11.2 4.668h.085c4.242 0 8.23-1.695 11.113-4.668l17.988-17.988c5.856-6.11 5.856-16.121-.254-22.316zm-11.199-43.781c-2.46 11.793-6.957 22.738-13.492 32.582-2.121 3.223-1.695 7.383 1.02 10.098l12.386 12.047-17.648 17.988-12.387-12.387c-2.714-2.715-6.957-3.14-10.098-1.02-10.012 6.618-20.957 11.114-32.668 13.575-3.734.761-6.449 4.074-6.449 7.89l.254 17.223-25.113.254v-17.48c0-3.816-2.715-7.129-6.449-7.89-11.625-2.376-22.57-6.958-32.582-13.575a7.725 7.725 0 00-4.414-1.359c-2.035 0-4.156.762-5.684 2.375l-12.047 12.387-17.902-17.562 12.387-12.387c2.715-2.715 3.14-6.871 1.02-10.098-6.535-10.012-11.113-20.957-13.492-32.668-.762-3.734-4.074-6.45-7.89-6.45l-17.31.255-.254-25.113h17.562c3.817 0 7.13-2.715 7.89-6.45 2.376-11.624 6.958-22.57 13.493-32.581 2.121-3.141 1.695-7.383-1.02-10.098l-12.387-12.133 17.648-17.988 12.387 12.387c2.715 2.714 6.957 3.14 10.098 1.019 10.012-6.617 20.957-11.113 32.582-13.574 3.735-.762 6.45-4.074 6.45-7.89l-.254-17.224 25.113-.253v17.48c0 3.816 2.714 7.128 6.449 7.89 11.625 2.375 22.57 6.957 32.668 13.574 3.223 2.121 7.383 1.695 10.098-1.02l12.047-12.386 17.988 17.562-12.387 12.387c-2.715 2.714-3.14 6.87-1.02 10.098 6.536 10.012 11.113 21.043 13.492 32.668.762 3.734 4.075 6.449 7.891 6.449h17.223l.254 24.859h-17.48c-3.984.176-7.211 2.805-7.973 6.539zM565.68 36.57h-93.758c-15.527 0-28.086 12.641-28.086 28.086v55.32c0 7.55 2.887 14.594 8.23 19.855l33.344 33.344c5.262 5.262 12.473 8.23 19.855 8.23h60.496c15.527 0 28.168-12.64 28.168-28.086l.004-88.663c-.082-15.528-12.727-28.087-28.254-28.087zm12.051 116.75c0 6.617-5.43 12.047-12.047 12.047l-60.414.004c-3.14 0-6.277-1.273-8.484-3.563l-33.344-33.344c-2.29-2.289-3.563-5.261-3.563-8.484l-.004-55.324c0-6.617 5.43-12.047 12.047-12.047h93.758c6.617 0 12.047 5.43 12.047 12.047zM134.32 181.41h60.496c7.55 0 14.594-2.887 19.855-8.23l33.344-33.345c5.344-5.343 8.23-12.387 8.23-19.855V64.66c0-15.527-12.64-28.086-28.168-28.086H134.32c-15.526 0-28.085 12.641-28.085 28.086v88.668c-.086 15.523 12.559 28.082 28.086 28.082zM122.269 64.66c0-6.617 5.43-12.047 12.047-12.047h93.758c6.617 0 12.047 5.43 12.047 12.047v55.32c0 3.223-1.273 6.277-3.563 8.57l-33.343 33.344a12.072 12.072 0 01-8.57 3.563H134.32c-6.617 0-12.047-5.43-12.047-12.047zM214.67 386.82c-5.344-5.344-12.387-8.23-19.855-8.23h-60.496c-15.527 0-28.086 12.64-28.086 28.168v88.668c0 15.527 12.641 28.168 28.086 28.168h93.758c15.527 0 28.168-12.642 28.168-28.169v-55.32c0-7.382-2.969-14.68-8.23-19.855zm25.453 108.52c0 6.617-5.43 12.047-12.047 12.047l-93.758.004c-6.617 0-12.047-5.43-12.047-12.047l-.004-88.668c0-6.617 5.43-12.047 12.047-12.047h60.496c3.223 0 6.277 1.273 8.57 3.562l33.344 33.344c2.207 2.207 3.563 5.344 3.563 8.485l.004 55.32zM565.68 378.59h-60.41c-7.383 0-14.68 2.969-19.855 8.23l-33.344 33.344c-5.344 5.344-8.23 12.387-8.23 19.855v55.32c0 15.441 12.558 28.086 28.085 28.086l93.758.254h.086c7.465 0 14.508-2.886 19.855-8.23 5.344-5.344 8.23-12.387 8.23-19.938l-.003-88.836c0-15.527-12.645-28.086-28.172-28.086zm12.051 117.09c0 3.223-1.273 6.277-3.563 8.57-2.289 2.29-5.261 3.563-8.484 3.563l-93.758-.254c-6.617 0-12.047-5.43-12.047-12.047v-55.32c0-3.14 1.273-6.277 3.563-8.485l33.344-33.344c2.207-2.207 5.343-3.562 8.484-3.562h60.496c6.617 0 12.047 5.43 12.047 12.047v88.832zM114.21 253.61h73.562c4.414 0 8.063-3.563 8.063-8.063 0-4.496-3.649-7.976-8.149-7.976H114.21c-4.414 0-8.062 3.562-8.062 8.062 0 4.497 3.648 7.977 8.062 7.977zM114.21 322.43h73.562c4.414 0 8.063-3.563 8.063-8.063 0-4.496-3.563-8.062-8.063-8.062l-73.562.004c-4.414 0-8.063 3.562-8.063 8.062 0 4.493 3.649 8.059 8.063 8.059zM585.79 237.57h-73.562c-4.414 0-8.063 3.563-8.063 8.063 0 4.496 3.563 8.062 8.063 8.062h73.562c4.414 0 8.063-3.563 8.063-8.063 0-4.496-3.649-8.062-8.063-8.062zM585.79 306.39h-73.562c-4.414 0-8.063 3.563-8.063 8.063 0 4.496 3.649 7.976 8.149 7.976h73.562c4.414 0 8.062-3.562 8.062-8.062-.004-4.497-3.734-7.977-8.148-7.977zM384.45 125.75c4.414 0 8.063-3.563 8.063-8.063l-.004-73.477c0-4.414-3.563-8.062-8.063-8.062-4.414 0-8.062 3.562-8.062 8.062v73.563c.003 4.414 3.57 7.976 8.066 7.976zM315.55 125.75c4.414 0 8.063-3.563 8.063-8.063V44.21c0-4.414-3.563-8.062-8.063-8.062-4.41 0-7.977 3.648-7.977 8.062v73.563a7.968 7.968 0 007.977 7.976zM384.45 434.25c-4.414 0-8.063 3.563-8.063 8.063v73.562c0 4.414 3.563 8.062 8.063 8.062 4.414 0 8.063-3.563 8.063-8.063v-73.562c-.086-4.5-3.653-8.062-8.063-8.062zM315.55 434.25c-4.414 0-8.063 3.563-8.063 8.063v73.562c0 4.414 3.563 8.062 8.063 8.062 4.414 0 8.063-3.563 8.063-8.063v-73.562c0-4.5-3.567-8.062-8.063-8.062z"/></svg>