<svg width="700pt" height="700pt" viewBox="0 0 700 700" xmlns="http://www.w3.org/2000/svg" fill="#fff"><path d="M383.79 328.28V560h231.72V328.28zM596.2 540.69h-86.898V419.13l41.422 41.422 13.613-13.613-64.688-64.691-64.785 64.785 13.613 13.613 41.516-41.516v121.56h-86.898V347.58h193.1z"/><path d="M325.86 405.52c-8.016 0-15.836-.191-23.461-.387-4.633-.191-9.172-.484-13.711-.773-2.898-.192-5.793-.29-8.691-.485-5.985-.386-11.875-.964-17.668-1.543-1.16-.097-2.415-.191-3.477-.289-6.66-.675-13.035-1.543-19.406-2.511-.191 0-.484-.098-.676-.098-32.633-4.828-60.633-12.164-82.55-20.953-.192-.098-.29-.098-.485-.191a323.128 323.128 0 01-11.297-4.926c-.485-.192-.965-.387-1.352-.676-3.187-1.543-6.18-3.187-9.074-4.73-.676-.387-1.45-.774-2.125-1.16a76.97 76.97 0 01-6.855-4.442c-.868-.578-1.739-1.16-2.512-1.738a75.362 75.362 0 01-5.02-4.055c-.867-.773-1.738-1.543-2.605-2.316a62.263 62.263 0 01-3.477-3.766 26.194 26.194 0 01-2.125-2.703c-.867-1.16-1.543-2.317-2.219-3.477-.578-.965-.964-1.93-1.449-2.898-.484-1.16-.867-2.317-1.062-3.477-.387-1.633-.774-3.273-.774-4.82v-79.27c.192.191.387.289.578.484a89.838 89.838 0 007.145 5.89c36.402 27.423 109.01 48.759 214.35 48.759 105.05 0 177.66-21.242 214.15-48.566 2.8-2.027 5.309-4.152 7.723-6.277.097-.098.191-.098.191-.192v35.727c0 5.309 4.344 9.656 9.656 9.656 5.309 0 9.656-4.343 9.656-9.656V96.551c0-1.449-.484-2.898-1.062-4.152C554.59 42.289 447.316 0 325.856 0c-121.27 0-228.44 42.19-240.22 92.305-.676 1.254-1.156 2.703-1.156 4.246v357.24c0 1.543.386 2.992 1.16 4.344 11.008 46.633 103.21 74.152 191.27 80.719h.773c5.02 0 9.27-3.863 9.657-8.883.386-5.309-3.575-9.945-8.883-10.332-107.47-8.11-170.04-40.742-174.38-67.391a25.313 25.313 0 00-.29-1.258v-81.199c.192.192.387.29.579.485a89.838 89.838 0 007.144 5.89c36.402 27.32 109.01 48.66 214.35 48.66 5.309 0 9.657-4.344 9.657-9.656-.004-5.309-4.348-9.656-9.657-9.656zM109.58 142.9a108.441 108.441 0 009.46 6.758c.677.484 1.544.867 2.22 1.351 2.8 1.739 5.793 3.477 8.98 5.215 1.16.578 2.317 1.254 3.574 1.836a168.214 168.214 0 0011.102 5.215c.676.289 1.254.578 1.836.867 4.54 1.93 9.368 3.766 14.387 5.504 1.352.484 2.801.965 4.25 1.45 3.957 1.35 8.11 2.605 12.36 3.862 1.542.485 2.992.868 4.632 1.352 5.602 1.543 11.488 3.09 17.574 4.441l2.606.579c5.406 1.16 11.008 2.218 16.8 3.28 1.93.388 3.958.677 5.891.966 5.504.867 11.102 1.738 16.898 2.511 1.45.192 2.899.387 4.442.578 7.144.868 14.578 1.641 22.207 2.22 1.93.19 3.863.288 5.793.386 6.082.484 12.359.773 18.73 1.062 2.316.098 4.632.192 7.047.29 8.203.289 16.699.48 25.488.48 8.785 0 17.28-.191 25.586-.484 2.414-.098 4.73-.192 7.046-.29 6.372-.288 12.648-.675 18.73-1.062 1.93-.098 3.864-.289 5.793-.387 7.63-.675 15.062-1.351 22.207-2.218 1.543-.192 2.899-.387 4.442-.579 5.793-.773 11.395-1.543 16.898-2.511 2.027-.29 3.957-.676 5.89-.965 5.793-1.063 11.395-2.125 16.801-3.281.868-.192 1.739-.387 2.606-.578 6.082-1.352 11.973-2.899 17.574-4.442 1.543-.387 3.09-.867 4.633-1.351 4.25-1.254 8.398-2.512 12.359-3.864 1.449-.484 2.898-.965 4.25-1.449 5.02-1.738 9.847-3.574 14.387-5.504.675-.289 1.254-.578 1.836-.867 3.863-1.738 7.629-3.477 11.102-5.215 1.254-.578 2.414-1.254 3.574-1.836 3.187-1.738 6.18-3.379 8.98-5.215.774-.484 1.543-.867 2.22-1.351a148.117 148.117 0 009.46-6.758c.773-.578 1.352-1.16 2.027-1.738 1.254-1.063 2.606-2.028 3.766-3.09v79.27c0 1.543-.387 3.187-.774 4.73-.289 1.16-.578 2.22-1.062 3.38-.387.964-.867 2.027-1.45 2.992-.675 1.16-1.35 2.316-2.124 3.476-.676.965-1.45 1.836-2.219 2.801a58.895 58.895 0 01-3.379 3.668c-.773.773-1.738 1.64-2.605 2.414a109.303 109.303 0 01-4.926 4.055c-.867.578-1.739 1.254-2.606 1.836-2.125 1.449-4.344 2.898-6.855 4.343-.676.387-1.45.868-2.219 1.254-2.8 1.641-5.793 3.188-8.98 4.73-.485.192-.965.485-1.45.677-3.574 1.64-7.242 3.28-11.297 4.925-.191.098-.386.098-.578.192-21.918 8.691-49.918 16.027-82.457 20.855-.191 0-.484.098-.676.098-6.277.964-12.746 1.738-19.309 2.511-1.16.098-2.414.192-3.574.29-5.793.577-11.586 1.16-17.668 1.542-2.8.192-5.793.29-8.691.485-4.54.289-8.98.578-13.711.773-7.727.098-15.547.293-23.56.293-8.015 0-15.835-.191-23.46-.387-4.633-.191-9.172-.484-13.711-.773-2.899-.191-5.793-.29-8.692-.484-5.984-.387-11.875-.965-17.668-1.543-1.16-.098-2.414-.192-3.476-.29-6.66-.675-13.035-1.543-19.406-2.511-.192 0-.485-.098-.676-.098-32.633-4.828-60.633-12.164-82.551-20.953-.191-.098-.29-.098-.484-.191a323.128 323.128 0 01-11.297-4.926c-.485-.191-.965-.387-1.352-.676-3.188-1.543-6.18-3.187-9.074-4.73-.676-.387-1.45-.774-2.125-1.16a76.97 76.97 0 01-6.856-4.442c-.867-.578-1.738-1.16-2.511-1.738a75.362 75.362 0 01-5.02-4.055c-.867-.773-1.738-1.543-2.605-2.316a62.263 62.263 0 01-3.477-3.766 26.194 26.194 0 01-2.125-2.703c-.867-1.16-1.543-2.316-2.219-3.477-.578-.964-.965-1.93-1.449-2.898-.484-1.16-.867-2.316-1.063-3.477-.386-1.636-.773-3.277-.773-4.82v-79.27c1.16 1.063 2.512 2.125 3.766 3.09.675.676 1.351 1.254 2.027 1.836zM325.86 19.31c119.14 0 215.79 42.098 221.78 78.496v.191c.191 1.165.285 2.32.285 3.383 0 34.277-91.242 72.414-222.07 72.414-130.82 0-222.07-38.137-222.07-72.414 0-1.062.098-2.219.29-3.281v-.191c5.89-36.5 102.64-78.598 221.78-78.598z"/></svg>