<svg width="466" height="95" fill="none" xmlns="http://www.w3.org/2000/svg"><g clip-path="url(#clip0_0_3)"><path d="M352.189 34.66c0 1.93.21 3.497.576 4.645a27.878 27.878 0 001.673 3.758c.262.418.367.835.367 1.2 0 .523-.314 1.045-.994 1.567l-3.295 2.192c-.471.313-.942.47-1.36.47-.523 0-1.046-.261-1.569-.731a16.166 16.166 0 01-1.883-2.453 40.277 40.277 0 01-1.621-3.08c-4.08 4.802-9.206 7.203-15.377 7.203-4.394 0-7.898-1.252-10.461-3.758-2.563-2.505-3.87-5.846-3.87-10.022 0-4.437 1.569-8.038 4.759-10.753 3.191-2.714 7.427-4.071 12.814-4.071 1.779 0 3.609.156 5.544.417 1.936.262 3.923.68 6.015 1.149v-3.81c0-3.968-.837-6.734-2.458-8.352-1.674-1.618-4.498-2.401-8.525-2.401-1.831 0-3.714.208-5.649.678-1.935.47-3.818 1.044-5.649 1.775a15.04 15.04 0 01-1.83.678c-.366.105-.628.157-.837.157-.732 0-1.098-.522-1.098-1.618V6.942c0-.835.104-1.461.366-1.827.261-.365.732-.73 1.464-1.096 1.831-.94 4.027-1.722 6.59-2.349 2.563-.678 5.283-.991 8.159-.991 6.224 0 10.775 1.409 13.704 4.228 2.876 2.818 4.341 7.098 4.341 12.84V34.66h.104zm-21.234 7.933c1.726 0 3.504-.313 5.387-.94 1.883-.625 3.556-1.774 4.969-3.34.836-.992 1.464-2.088 1.778-3.34.314-1.253.523-2.767.523-4.542V28.24a43.732 43.732 0 00-4.812-.887 39.488 39.488 0 00-4.916-.314c-3.505 0-6.068.679-7.794 2.088-1.726 1.41-2.562 3.393-2.562 6.003 0 2.453.627 4.28 1.935 5.533 1.255 1.305 3.086 1.931 5.492 1.931zm41.999 5.638c-.942 0-1.569-.157-1.988-.522-.418-.313-.784-1.044-1.098-2.036L357.577 5.324c-.314-1.044-.471-1.722-.471-2.088 0-.835.418-1.305 1.255-1.305h5.126c.994 0 1.674.157 2.04.522.418.313.732 1.044 1.046 2.036l8.787 34.555 8.159-34.555c.261-1.044.575-1.723.993-2.036.419-.313 1.151-.522 2.093-.522h4.184c.994 0 1.674.157 2.092.522.418.313.784 1.044.994 2.036l8.263 34.973 9.049-34.973c.314-1.044.68-1.723 1.046-2.036.418-.313 1.098-.522 2.04-.522h4.864c.837 0 1.307.418 1.307 1.305 0 .261-.052.522-.104.835-.052.314-.157.731-.366 1.305l-12.605 40.35c-.314 1.043-.68 1.722-1.099 2.035-.418.313-1.098.522-1.987.522h-4.498c-.994 0-1.674-.157-2.092-.522-.419-.365-.785-1.044-.994-2.088l-8.107-33.668-8.054 33.616c-.262 1.044-.576 1.722-.994 2.088-.419.365-1.151.522-2.092.522h-4.498zm67.209 1.41c-2.72 0-5.44-.314-8.055-.94-2.615-.627-4.655-1.305-6.015-2.088-.837-.47-1.412-.992-1.621-1.462a3.682 3.682 0 01-.314-1.461v-2.662c0-1.097.418-1.619 1.203-1.619.314 0 .627.053.941.157.314.104.785.313 1.308.522a28.47 28.47 0 005.753 1.827 31.47 31.47 0 006.224.626c3.295 0 5.858-.574 7.636-1.722 1.779-1.149 2.72-2.819 2.72-4.96 0-1.46-.471-2.661-1.412-3.653-.942-.992-2.72-1.88-5.283-2.714l-7.584-2.35c-3.818-1.2-6.642-2.974-8.368-5.323-1.726-2.297-2.615-4.855-2.615-7.569 0-2.192.471-4.124 1.412-5.794.942-1.67 2.197-3.132 3.766-4.28 1.569-1.2 3.347-2.088 5.439-2.714 2.092-.627 4.289-.888 6.59-.888 1.151 0 2.354.052 3.505.209 1.203.157 2.301.365 3.399.574 1.046.261 2.04.522 2.982.835.941.313 1.673.627 2.196.94.733.417 1.256.835 1.569 1.305.314.417.471.992.471 1.722v2.454c0 1.096-.418 1.67-1.203 1.67-.418 0-1.098-.209-1.987-.626-2.982-1.358-6.329-2.036-10.042-2.036-2.982 0-5.335.47-6.957 1.461-1.621.992-2.458 2.506-2.458 4.646 0 1.462.523 2.714 1.569 3.706 1.046.992 2.981 1.984 5.754 2.87l7.426 2.35c3.766 1.2 6.486 2.87 8.107 5.01 1.622 2.14 2.406 4.594 2.406 7.308 0 2.245-.47 4.28-1.36 6.056-.941 1.774-2.196 3.34-3.818 4.593-1.621 1.305-3.556 2.244-5.805 2.923-2.354.73-4.812 1.096-7.479 1.096z" fill="#fff"/><path fill-rule="evenodd" clip-rule="evenodd" d="M450.048 75.008c-17.208 12.684-42.209 19.418-63.705 19.418-30.126 0-57.271-11.118-77.774-29.596-1.621-1.462-.157-3.445 1.778-2.297 22.177 12.84 49.531 20.618 77.827 20.618 19.09 0 40.064-3.967 59.363-12.11 2.877-1.305 5.335 1.88 2.511 3.967z" fill="#F90"/><path fill-rule="evenodd" clip-rule="evenodd" d="M457.213 66.865c-2.197-2.818-14.54-1.357-20.136-.678-1.674.209-1.936-1.253-.419-2.35 9.833-6.89 25.995-4.906 27.878-2.609 1.882 2.349-.524 18.478-9.729 26.203-1.412 1.2-2.772.575-2.144-.991 2.092-5.168 6.747-16.808 4.55-19.575z" fill="#F90"/></g><path d="M268.996 43.072v8.334h-33.137v-8.334h33.137zm-12.019-13.115v35.195h-9.065V29.957h9.065z" fill="#fff" fill-opacity=".7"/><g clip-path="url(#clip1_0_3)"><path d="M119.363 78.147h-10.878v-7.349h-.193c-1.017 2.29-2.78 4.312-5.288 6.063-2.508 1.752-5.478 2.626-8.909 2.623-2.987 0-5.545-.524-7.672-1.573a15.126 15.126 0 01-5.243-4.153 16.802 16.802 0 01-2.998-5.917 24.864 24.864 0 01-.955-6.87V32.34h11.437v25.385c.004 1.404.099 2.806.284 4.198a11.35 11.35 0 001.24 3.959 8.191 8.191 0 002.62 2.922c1.113.764 2.59 1.146 4.431 1.148a9.854 9.854 0 008.063-3.927 12.406 12.406 0 001.952-3.959 15.78 15.78 0 00.669-4.532V32.34h11.44v45.806zM131.399 32.341h11.438v45.806h-11.438V32.341zM155.07 6h11.437v72.147H155.07V6zM178.058 32.341V19.075h11.247v13.266h11.434V41.5h-11.434v21.282c0 2.039.365 3.722 1.095 5.048.731 1.327 2.367 1.995 4.908 2.004a14.113 14.113 0 002.478-.24 9.913 9.913 0 002.388-.714l.371 8.98a18.616 18.616 0 01-3.618.906 25.487 25.487 0 01-4.006.335c-3.046 0-5.522-.43-7.429-1.288a11.282 11.282 0 01-4.526-3.529 13.117 13.117 0 01-2.287-5.154 30.016 30.016 0 01-.621-6.25V32.341z" fill="#fff"/><path d="M50.08 54.607c4.312-8.478.944-18.852-7.521-23.17-8.466-4.318-18.824-.946-23.136 7.533-4.312 8.478-.944 18.852 7.522 23.17 8.465 4.318 18.824.945 23.135-7.533z" fill="#E98924"/><path d="M69.504 46.792a34.832 34.832 0 00-10.18-24.611A34.728 34.728 0 0034.75 11.986v10.152a24.59 24.59 0 0113.676 4.155 24.645 24.645 0 019.066 11.063 24.686 24.686 0 011.4 14.243 24.663 24.663 0 01-6.736 12.622 24.604 24.604 0 01-12.604 6.746 24.58 24.58 0 01-14.221-1.402 24.622 24.622 0 01-11.047-9.08 24.678 24.678 0 01-4.148-13.695 24.697 24.697 0 017.217-17.424 24.623 24.623 0 0117.397-7.228v-10.15a34.729 34.729 0 00-24.575 10.195A34.833 34.833 0 00-.006 46.795a34.832 34.832 0 0010.18 24.612A34.729 34.729 0 0034.75 81.602l32.593.403-10.49-8.35a34.715 34.715 0 009.338-12.008 34.768 34.768 0 003.314-14.855z" fill="#fff"/></g><defs><clipPath id="clip0_0_3"><path fill="#fff" transform="translate(307)" d="M0 0h159v95H0z"/></clipPath><clipPath id="clip1_0_3"><path fill="#fff" transform="translate(0 6)" d="M0 0h200.739v76H0z"/></clipPath></defs></svg>