<svg width="528" height="99" fill="none" xmlns="http://www.w3.org/2000/svg"><g clip-path="url(#clip0_227_375)"><path d="M414.189 38.66c0 1.93.21 3.497.576 4.645a27.877 27.877 0 001.673 3.758c.262.418.367.835.367 1.2 0 .523-.314 1.045-.994 1.567l-3.295 2.192c-.471.313-.942.47-1.36.47-.523 0-1.046-.261-1.569-.731a16.166 16.166 0 01-1.883-2.453 40.277 40.277 0 01-1.621-3.08c-4.08 4.802-9.206 7.203-15.377 7.203-4.394 0-7.898-1.252-10.461-3.758-2.563-2.505-3.87-5.846-3.87-10.022 0-4.437 1.569-8.038 4.759-10.753 3.191-2.714 7.427-4.071 12.814-4.071 1.779 0 3.609.156 5.544.417 1.936.262 3.923.68 6.015 1.149v-3.81c0-3.968-.837-6.734-2.458-8.352-1.674-1.618-4.498-2.401-8.525-2.401a23.84 23.84 0 00-5.649.678c-1.935.47-3.818 1.044-5.649 1.775-.837.365-1.464.574-1.83.679-.366.104-.628.156-.837.156-.732 0-1.098-.522-1.098-1.618v-2.558c0-.835.104-1.461.366-1.827.261-.365.732-.73 1.464-1.096 1.831-.94 4.027-1.722 6.59-2.349 2.563-.678 5.283-.991 8.159-.991 6.224 0 10.775 1.409 13.704 4.228 2.876 2.818 4.341 7.099 4.341 12.84V38.66h.104zm-21.234 7.933c1.726 0 3.504-.313 5.387-.94 1.883-.625 3.556-1.774 4.969-3.34.836-.992 1.464-2.088 1.778-3.34.314-1.253.523-2.767.523-4.542V32.24a43.755 43.755 0 00-4.812-.887 39.488 39.488 0 00-4.916-.314c-3.505 0-6.068.679-7.794 2.088-1.726 1.41-2.562 3.393-2.562 6.003 0 2.453.627 4.28 1.935 5.533 1.255 1.305 3.086 1.931 5.492 1.931zm41.999 5.638c-.942 0-1.569-.157-1.988-.522-.418-.313-.784-1.044-1.098-2.036L419.577 9.324c-.314-1.044-.471-1.722-.471-2.088 0-.835.418-1.305 1.255-1.305h5.126c.994 0 1.674.157 2.04.522.418.313.732 1.044 1.046 2.036l8.787 34.555 8.159-34.555c.261-1.044.575-1.723.993-2.036.419-.313 1.151-.522 2.093-.522h4.184c.994 0 1.673.157 2.092.522.418.313.784 1.044.994 2.036l8.263 34.973 9.049-34.973c.314-1.044.68-1.723 1.046-2.036.418-.313 1.098-.522 2.04-.522h4.864c.837 0 1.307.418 1.307 1.305 0 .261-.052.522-.104.835-.053.314-.157.731-.366 1.305l-12.605 40.35c-.314 1.043-.68 1.722-1.099 2.035-.418.313-1.098.522-1.987.522h-4.498c-.994 0-1.674-.157-2.092-.522-.419-.365-.785-1.044-.994-2.088l-8.107-33.667-8.055 33.615c-.261 1.044-.575 1.722-.993 2.088-.419.365-1.151.522-2.092.522h-4.498zm67.208 1.41a34.68 34.68 0 01-8.054-.94c-2.615-.627-4.655-1.305-6.015-2.088-.837-.47-1.412-.992-1.621-1.462a3.665 3.665 0 01-.314-1.461v-2.662c0-1.097.418-1.619 1.203-1.619.314 0 .627.053.941.157.314.104.785.313 1.308.522a28.47 28.47 0 005.753 1.827 31.47 31.47 0 006.224.626c3.295 0 5.858-.574 7.636-1.722 1.779-1.149 2.72-2.819 2.72-4.96 0-1.46-.471-2.661-1.412-3.653-.942-.992-2.72-1.88-5.283-2.714l-7.584-2.35c-3.818-1.2-6.642-2.974-8.368-5.323-1.726-2.297-2.615-4.855-2.615-7.569 0-2.192.471-4.124 1.412-5.794.942-1.67 2.197-3.132 3.766-4.28 1.569-1.2 3.347-2.088 5.439-2.714 2.092-.627 4.289-.888 6.59-.888 1.151 0 2.354.052 3.505.209 1.203.157 2.301.365 3.399.574 1.046.261 2.04.522 2.982.835.941.314 1.673.627 2.196.94.733.417 1.256.835 1.569 1.305.314.417.471.992.471 1.722v2.454c0 1.096-.418 1.67-1.203 1.67-.418 0-1.098-.209-1.987-.626-2.982-1.357-6.329-2.036-10.042-2.036-2.982 0-5.335.47-6.957 1.461-1.621.992-2.458 2.506-2.458 4.646 0 1.462.523 2.714 1.569 3.706 1.046.992 2.981 1.984 5.754 2.871l7.426 2.349c3.766 1.2 6.486 2.87 8.107 5.01 1.622 2.141 2.406 4.594 2.406 7.308 0 2.245-.47 4.28-1.36 6.056-.941 1.774-2.196 3.34-3.818 4.593-1.621 1.305-3.556 2.244-5.805 2.923-2.354.73-4.812 1.096-7.48 1.096z" fill="#fff"/><path fill-rule="evenodd" clip-rule="evenodd" d="M512.048 79.008c-17.208 12.684-42.209 19.418-63.705 19.418-30.126 0-57.271-11.118-77.774-29.596-1.621-1.462-.157-3.445 1.778-2.297 22.177 12.84 49.531 20.618 77.827 20.618 19.09 0 40.064-3.967 59.363-12.11 2.877-1.305 5.335 1.88 2.511 3.967z" fill="#F90"/><path fill-rule="evenodd" clip-rule="evenodd" d="M519.213 70.865c-2.197-2.818-14.54-1.357-20.136-.678-1.674.209-1.936-1.253-.419-2.35 9.833-6.89 25.995-4.906 27.878-2.609 1.882 2.349-.523 18.478-9.729 26.203-1.412 1.2-2.772.575-2.144-.991 2.092-5.168 6.747-16.808 4.55-19.575z" fill="#F90"/></g><path d="M314.996 47.072v8.334h-33.137v-8.334h33.137zm-12.019-13.115v35.195h-9.065V33.957h9.065z" fill="#fff"/><g clip-path="url(#clip1_227_375)"><path d="M144.492 87.336h-13.168V78.44h-.234c-1.231 2.772-3.365 5.219-6.401 7.34-3.036 2.12-6.631 3.178-10.784 3.174-3.617 0-6.713-.635-9.288-1.904a18.312 18.312 0 01-6.346-5.027 20.337 20.337 0 01-3.63-7.163 30.1 30.1 0 01-1.156-8.317V31.887h13.846v30.729c.004 1.7.119 3.397.343 5.081.202 1.677.71 3.301 1.5 4.793a9.922 9.922 0 003.173 3.538c1.347.924 3.135 1.387 5.363 1.39a11.907 11.907 0 009.76-4.755 15.01 15.01 0 002.364-4.792c.535-1.78.808-3.628.809-5.487V31.887h13.849v55.45zM159.062 31.887h13.846v55.45h-13.846v-55.45zM187.716 0h13.845v87.336h-13.845V0zM215.544 31.887v-16.06h13.614v16.06H243v11.086h-13.842v25.763c0 2.468.442 4.505 1.327 6.111.884 1.606 2.864 2.415 5.941 2.425a17.098 17.098 0 002.999-.29 11.989 11.989 0 002.891-.864l.45 10.87c-1.42.512-2.888.88-4.381 1.098a30.849 30.849 0 01-4.85.405c-3.686 0-6.684-.52-8.992-1.56a13.656 13.656 0 01-5.479-4.271 15.867 15.867 0 01-2.768-6.24 36.268 36.268 0 01-.752-7.565V31.887z" fill="#fff"/><path d="M60.623 58.84c5.22-10.263 1.143-22.82-9.105-28.048-10.248-5.227-22.787-1.144-28.006 9.119-5.22 10.263-1.143 22.82 9.105 28.048 10.248 5.227 22.787 1.144 28.006-9.119z" fill="#E98924"/><path d="M84.137 49.38a42.165 42.165 0 00-12.323-29.793 42.04 42.04 0 00-29.749-12.34v12.289c5.893 0 11.654 1.75 16.554 5.03 4.9 3.278 8.72 7.939 10.975 13.391A29.882 29.882 0 0171.289 55.2a29.855 29.855 0 01-8.154 15.279 29.783 29.783 0 01-15.257 8.167 29.756 29.756 0 01-17.216-1.698A29.807 29.807 0 0117.29 65.956a29.873 29.873 0 01-5.022-16.579 29.896 29.896 0 018.737-21.091 29.807 29.807 0 0121.06-8.75V7.25a42.04 42.04 0 00-29.749 12.34A42.166 42.166 0 00-.006 49.384a42.166 42.166 0 0012.322 29.793 42.04 42.04 0 0029.75 12.34l39.453.49-12.698-10.11a42.024 42.024 0 0011.304-14.535 42.086 42.086 0 004.012-17.982z" fill="#fff"/></g><defs><clipPath id="clip0_227_375"><path fill="#fff" transform="translate(369 4)" d="M0 0h159v95H0z"/></clipPath><clipPath id="clip1_227_375"><path fill="#fff" d="M0 0h243v92H0z"/></clipPath></defs></svg>