<svg width="700pt" height="700pt" viewBox="0 0 700 700" xmlns="http://www.w3.org/2000/svg" fill="#fff"><path d="M460.01 374.95h-329.4c-3.484 0-6.223-2.738-6.223-6.223 0-3.484 2.739-6.222 6.223-6.222h329.41c3.484 0 6.223 2.738 6.223 6.222-.004 3.489-2.742 6.223-6.227 6.223z"/><path d="M218.21 374.95h-67.449c-3.484 0-6.223-2.738-6.223-6.223v-146.22c0-8.71 7.094-15.93 15.93-15.93h48.16c8.711 0 15.93 7.094 15.93 15.93v146.22c-.125 3.485-2.863 6.22-6.347 6.22zm-61.227-12.441h55.004v-140c0-1.867-1.617-3.484-3.484-3.484h-48.16c-1.868 0-3.485 1.617-3.485 3.484v140zM329.09 374.95h-67.449c-3.484 0-6.223-2.738-6.223-6.223v-205.58c0-8.836 7.22-16.055 16.055-16.055h47.91c8.836 0 16.055 7.22 16.055 16.055v205.58c-.125 3.485-2.863 6.22-6.347 6.22zm-61.227-12.441h55.004v-199.36a3.611 3.611 0 00-3.61-3.61h-47.91a3.611 3.611 0 00-3.609 3.61zM439.97 374.95h-67.449c-3.484 0-6.223-2.738-6.223-6.223V95.697c0-8.836 7.22-15.93 16.055-15.93h47.91c8.836 0 16.055 7.22 16.055 15.93v273.03c-.125 3.485-2.863 6.22-6.347 6.22zm-61.227-12.441h55.004V95.699c0-1.992-1.617-3.484-3.61-3.484h-47.91c-1.867 0-3.609 1.617-3.609 3.484zM184.49 188.29c-11.82 0-21.527-9.707-21.527-21.527s9.707-21.527 21.527-21.527 21.527 9.707 21.527 21.527c.004 11.82-9.703 21.527-21.527 21.527zm0-30.613c-4.977 0-9.086 4.106-9.086 9.086 0 4.976 4.106 9.086 9.086 9.086 4.977 0 9.086-4.106 9.086-9.086s-4.11-9.086-9.086-9.086zM295.37 128.8c-11.82 0-21.527-9.707-21.527-21.527 0-11.824 9.707-21.406 21.527-21.406s21.527 9.707 21.527 21.527c.004 11.824-9.703 21.406-21.527 21.406zm0-30.488c-4.977 0-9.086 4.106-9.086 9.086 0 4.977 4.106 9.086 9.086 9.086 4.977 0 9.086-4.106 9.086-9.086s-4.106-9.086-9.086-9.086zM406.25 61.352c-11.82 0-21.527-9.707-21.527-21.527s9.707-21.527 21.527-21.527 21.527 9.707 21.527 21.527-9.707 21.527-21.527 21.527zm0-30.613c-4.977 0-9.086 4.105-9.086 9.086 0 4.976 4.106 9.086 9.086 9.086 4.977 0 9.086-4.106 9.086-9.086-.004-4.98-4.11-9.086-9.086-9.086z"/><path d="M197.93 165.76c-2.238 0-4.356-1.246-5.477-3.234-1.617-2.989-.496-6.844 2.489-8.461l84-45.051c2.988-1.618 6.844-.496 8.46 2.488 1.618 2.988.497 6.844-2.488 8.46l-84 45.052c-.992.496-1.988.746-2.984.746zm110.51-60.234c-2.117 0-4.106-.996-5.352-2.988-1.742-2.989-.87-6.72 2.118-8.586l84.746-51.645c2.988-1.742 6.718-.871 8.585 2.117 1.743 2.988.872 6.719-2.117 8.586l-84.746 51.645c-.996.625-2.117.871-3.234.871zM203.65 131.54H81.57c-3.484 0-6.223-2.738-6.223-6.223s2.739-6.222 6.223-6.222h122.08c3.484 0 6.223 2.738 6.223 6.222s-2.739 6.223-6.223 6.223zM251.19 96.195H81.57c-3.484 0-6.223-2.738-6.223-6.223s2.739-6.222 6.223-6.222h169.62c3.484 0 6.223 2.738 6.223 6.222s-2.864 6.223-6.223 6.223zM310.55 60.852H81.57c-3.484 0-6.223-2.738-6.223-6.223s2.739-6.222 6.223-6.222h229.1c3.484 0 6.223 2.738 6.223 6.222-.125 3.364-2.864 6.223-6.348 6.223zM483.03 465.05H107.71c-17.797 0-32.355-14.559-32.355-32.355v-233.96c0-17.922 14.559-32.355 32.355-32.355h62.719c3.484 0 6.223 2.738 6.223 6.223s-2.739 6.222-6.223 6.222H107.71c-10.949 0-19.91 8.961-19.91 19.91v233.83c0 10.95 8.96 19.91 19.91 19.91h375.32c10.949 0 19.91-8.96 19.91-19.91v-203.09c0-3.484 2.738-6.222 6.223-6.222 3.484 0 6.222 2.738 6.222 6.222v203.22c0 17.793-14.559 32.355-32.355 32.355zm-17.422-286.22h-25.637c-3.484 0-6.223-2.738-6.223-6.223s2.739-6.222 6.223-6.222h25.637c3.484 0 6.223 2.738 6.223 6.222s-2.739 6.223-6.223 6.223zm-93.086 0h-43.43c-3.484 0-6.223-2.738-6.223-6.223s2.739-6.222 6.223-6.222h43.43c3.484 0 6.223 2.738 6.223 6.222s-2.739 6.223-6.223 6.223zm-110.88 0h-62.969c-3.484 0-6.223-2.738-6.223-6.223s2.739-6.222 6.223-6.222h62.969c3.484 0 6.223 2.738 6.223 6.222s-2.864 6.223-6.223 6.223z"/><path d="M509.16 411.04H81.57c-3.484 0-6.223-2.738-6.223-6.223s2.739-6.222 6.223-6.222h427.71c3.484 0 6.223 2.738 6.223 6.222s-2.864 6.223-6.348 6.223zM372.03 543.57H218.59c-2.238 0-4.356-1.246-5.477-3.11-1.12-1.867-1.12-4.355.125-6.222l47.04-78.523c1.742-2.988 5.601-3.86 8.585-2.117 2.989 1.742 3.86 5.601 2.117 8.586l-41.44 69.066h131.41l-41.441-69.066c-1.743-2.989-.747-6.72 2.117-8.586 2.988-1.743 6.719-.746 8.586 2.117l47.164 78.523c1.12 1.867 1.246 4.355.125 6.223-1.118 1.863-3.235 3.109-5.473 3.109zM328.84 438.04h-67.074c-3.484 0-6.223-2.738-6.223-6.223 0-3.484 2.739-6.222 6.223-6.222l67.074.004c3.484 0 6.223 2.738 6.223 6.222s-2.739 6.219-6.223 6.219zM541.89 242.91c-28.871 0-56.996-14.934-72.551-41.812-23.023-39.945-9.332-91.094 30.613-114.12 11.574-6.719 24.141-10.453 37.457-11.074 1.992-.125 3.86.746 5.102 2.238 1.246 1.493 1.742 3.61 1.12 5.477l-23.644 88.105 88.105 23.645c1.867.496 3.484 1.867 4.23 3.734s.496 3.98-.62 5.602c-7.22 11.199-16.802 20.16-28.376 26.879-12.94 7.719-27.254 11.324-41.438 11.324zM529.445 89.35c-8.09 1.367-15.93 4.23-23.148 8.46-33.973 19.665-45.672 63.22-26.008 97.067 19.664 33.848 63.219 45.672 97.066 26.008 7.344-4.23 13.688-9.457 18.914-15.805l-85.246-22.898c-1.617-.375-2.988-1.492-3.734-2.863-.746-1.368-.996-3.11-.621-4.73z"/><path d="M616.44 185.55c-.496 0-1.121-.125-1.617-.25l-74.668-20.035c-1.617-.375-2.988-1.492-3.735-2.863-.746-1.367-.996-3.11-.62-4.73l20.034-74.669c.871-3.36 4.356-5.351 7.59-4.355 21.527 5.722 39.574 19.664 50.773 38.949 11.2 19.289 14.188 41.812 8.336 63.344-.375 1.617-1.492 2.988-2.863 3.734-.992.625-2.114.875-3.23.875zm-67.078-30.613l62.348 16.676c2.988-16.426 0-33.227-8.46-47.91-8.462-14.684-21.528-25.512-37.208-31.234z"/></svg>
