<?xml version="1.0" encoding="utf-8"?>
<!-- Generator: Adobe Illustrator 25.2.1, SVG Export Plug-In . SVG Version: 6.00 Build 0)  -->
<svg version="1.1" id="Layer_1" xmlns="http://www.w3.org/2000/svg" xmlns:xlink="http://www.w3.org/1999/xlink" x="0px" y="0px"
	 viewBox="0 0 149 149" style="enable-background:new 0 0 149 149;" xml:space="preserve">
<style type="text/css">
	.st0{fill:#FFFFFF;}
	.st1{fill:#D6D6D6;}
	.st2{fill:#545454;}
</style>
<g>
	<circle class="st0" cx="74.5" cy="74.5" r="71"/>
	<path class="st1" d="M74.5,149C33.4,149,0,115.6,0,74.5C0,33.4,33.4,0,74.5,0S149,33.4,149,74.5C149,115.6,115.6,149,74.5,149z
		 M74.5,7C37.3,7,7,37.3,7,74.5S37.3,142,74.5,142c37.2,0,67.5-30.3,67.5-67.5S111.8,7,74.5,7z"/>
</g>
<path class="st2" d="M112,85l-5.3-3.8l4.4-35.9c0.1-1.1-0.2-2.3-1-3.1c-0.8-0.9-1.8-1.3-3-1.3H42.8c-1.1,0-2.2,0.5-3,1.3
	c-0.8,0.9-1.1,2-1,3.1l7.7,63.4c0.2,2,1.9,3.5,4,3.5h48.8c2,0,3.7-1.5,4-3.5l2.2-18.4l1.8,1.3c0.7,0.5,1.5,0.7,2.3,0.7
	c1.2,0,2.5-0.6,3.3-1.7C114.2,88.7,113.8,86.2,112,85z M95.8,104.2H54.1l-6.7-55.4h55.3l-3.3,27.1L82.1,63.7c0,0,0,0,0-0.1
	c0-4.1-3.3-7.4-7.4-7.4s-7.4,3.3-7.4,7.4s3.3,7.4,7.4,7.4c1.1,0,2-0.2,3-0.6l20.4,14.6L95.8,104.2z"/>
</svg>
