<?xml version="1.0" encoding="UTF-8"?>
<svg width="700pt" height="700pt" version="1.1" viewBox="0 0 700 700" xmlns="http://www.w3.org/2000/svg" xmlns:xlink="http://www.w3.org/1999/xlink">
 <g>
  <path d="m383.79 328.28v231.72h231.72v-231.72zm212.41 212.41h-86.898v-121.56l41.422 41.422 13.613-13.613-64.688-64.691-64.785 64.785 13.613 13.613 41.516-41.516v121.56h-86.898v-193.11h193.1z"/>
  <path d="m325.86 405.52c-8.0156 0-15.836-0.19141-23.461-0.38672-4.6328-0.19141-9.1719-0.48438-13.711-0.77344-2.8984-0.19141-5.793-0.28906-8.6914-0.48438-5.9844-0.38672-11.875-0.96484-17.668-1.543-1.1602-0.097656-2.4141-0.19141-3.4766-0.28906-6.6602-0.67578-13.035-1.543-19.406-2.5117-0.19141 0-0.48438-0.097656-0.67578-0.097656-32.633-4.8281-60.633-12.164-82.551-20.953-0.19141-0.097656-0.28906-0.097656-0.48438-0.19141-3.957-1.6406-7.7227-3.2812-11.297-4.9258-0.48438-0.19141-0.96484-0.38672-1.3516-0.67578-3.1875-1.543-6.1797-3.1875-9.0742-4.7305-0.67578-0.38672-1.4492-0.77344-2.125-1.1602-2.5117-1.4492-4.7305-2.8984-6.8555-4.4414-0.86719-0.57812-1.7383-1.1602-2.5117-1.7383-1.8359-1.3516-3.4766-2.7031-5.0195-4.0547-0.86719-0.77344-1.7383-1.543-2.6055-2.3164-1.2539-1.2539-2.4141-2.5117-3.4766-3.7656-0.77344-0.86719-1.543-1.8359-2.125-2.7031-0.86719-1.1602-1.543-2.3164-2.2188-3.4766-0.57812-0.96484-0.96484-1.9297-1.4492-2.8984-0.48438-1.1602-0.86719-2.3164-1.0625-3.4766-0.38672-1.6328-0.77344-3.2734-0.77344-4.8203v-79.27c0.19141 0.19141 0.38672 0.28906 0.57812 0.48438 2.2188 2.0273 4.5391 3.957 7.1445 5.8906 36.402 27.422 109.01 48.758 214.35 48.758 105.05 0 177.66-21.242 214.15-48.566 2.8008-2.0273 5.3086-4.1523 7.7227-6.2773 0.097657-0.097656 0.19141-0.097656 0.19141-0.19141v35.727c0 5.3086 4.3438 9.6562 9.6562 9.6562 5.3086 0 9.6562-4.3438 9.6562-9.6562v-193.11c0-1.4492-0.48438-2.8984-1.0625-4.1523-11.586-50.109-118.86-92.398-240.32-92.398-121.27 0-228.44 42.191-240.22 92.305-0.67578 1.2539-1.1562 2.7031-1.1562 4.2461v357.24c0 1.543 0.38672 2.9922 1.1602 4.3438 11.008 46.633 103.21 74.152 191.27 80.719h0.77344c5.0195 0 9.2695-3.8633 9.6562-8.8828 0.38672-5.3086-3.5742-9.9453-8.8828-10.332-107.47-8.1094-170.04-40.742-174.38-67.391-0.097656-0.48438-0.19141-0.87109-0.28906-1.2578v-81.199c0.19141 0.19141 0.38672 0.28906 0.57812 0.48438 2.2188 2.0273 4.5391 3.957 7.1445 5.8906 36.402 27.32 109.01 48.66 214.35 48.66 5.3086 0 9.6562-4.3438 9.6562-9.6562-0.003906-5.3086-4.3477-9.6562-9.6562-9.6562zm-216.28-262.62c2.8984 2.3164 5.9844 4.5391 9.4609 6.7578 0.67578 0.48438 1.543 0.86719 2.2188 1.3516 2.8008 1.7383 5.793 3.4766 8.9805 5.2148 1.1602 0.57812 2.3164 1.2539 3.5742 1.8359 3.5742 1.8359 7.2422 3.5742 11.102 5.2148 0.67578 0.28906 1.2539 0.57812 1.8359 0.86719 4.5391 1.9297 9.3672 3.7656 14.387 5.5039 1.3516 0.48438 2.8008 0.96484 4.25 1.4492 3.957 1.3516 8.1094 2.6055 12.359 3.8633 1.543 0.48438 2.9922 0.86719 4.6328 1.3516 5.6016 1.543 11.488 3.0898 17.574 4.4414 0.86719 0.19141 1.7383 0.38672 2.6055 0.57812 5.4062 1.1602 11.008 2.2188 16.801 3.2812 1.9297 0.38672 3.957 0.67578 5.8906 0.96484 5.5039 0.86719 11.102 1.7383 16.898 2.5117 1.4492 0.19141 2.8984 0.38672 4.4414 0.57812 7.1445 0.86719 14.578 1.6406 22.207 2.2188 1.9297 0.19141 3.8633 0.28906 5.793 0.38672 6.082 0.48438 12.359 0.77344 18.73 1.0625 2.3164 0.097657 4.6328 0.19141 7.0469 0.28906 8.2031 0.28906 16.699 0.48047 25.488 0.48047 8.7852 0 17.281-0.19141 25.586-0.48437 2.4141-0.097657 4.7305-0.19141 7.0469-0.28906 6.3711-0.28906 12.648-0.67578 18.73-1.0625 1.9297-0.097656 3.8633-0.28906 5.793-0.38672 7.6289-0.67578 15.062-1.3516 22.207-2.2188 1.543-0.19141 2.8984-0.38672 4.4414-0.57812 5.793-0.77344 11.395-1.543 16.898-2.5117 2.0273-0.28906 3.957-0.67578 5.8906-0.96484 5.793-1.0625 11.395-2.125 16.801-3.2812 0.86719-0.19141 1.7383-0.38672 2.6055-0.57812 6.082-1.3516 11.973-2.8984 17.574-4.4414 1.543-0.38672 3.0898-0.86719 4.6328-1.3516 4.25-1.2539 8.3984-2.5117 12.359-3.8633 1.4492-0.48438 2.8984-0.96484 4.25-1.4492 5.0195-1.7383 9.8477-3.5742 14.387-5.5039 0.67578-0.28906 1.2539-0.57812 1.8359-0.86719 3.8633-1.7383 7.6289-3.4766 11.102-5.2148 1.2539-0.57813 2.4141-1.2539 3.5742-1.8359 3.1875-1.7383 6.1797-3.3789 8.9805-5.2148 0.77344-0.48438 1.543-0.86719 2.2188-1.3516 3.3789-2.2188 6.4688-4.4414 9.4609-6.7578 0.77344-0.57812 1.3516-1.1602 2.0273-1.7383 1.2539-1.0625 2.6055-2.0273 3.7656-3.0898v79.27c0 1.543-0.38672 3.1875-0.77344 4.7305-0.28906 1.1602-0.57812 2.2188-1.0625 3.3789-0.38672 0.96484-0.86719 2.0273-1.4492 2.9922-0.67578 1.1602-1.3516 2.3164-2.125 3.4766-0.67578 0.96484-1.4492 1.8359-2.2188 2.8008-1.0625 1.2539-2.125 2.4141-3.3789 3.668-0.77344 0.77344-1.7383 1.6406-2.6055 2.4141-1.543 1.3516-3.1875 2.7031-4.9258 4.0547-0.86719 0.57813-1.7383 1.2539-2.6055 1.8359-2.125 1.4492-4.3438 2.8984-6.8555 4.3438-0.67578 0.38672-1.4492 0.86719-2.2188 1.2539-2.8008 1.6406-5.793 3.1875-8.9805 4.7305-0.48438 0.19141-0.96484 0.48438-1.4492 0.67578-3.5742 1.6406-7.2422 3.2812-11.297 4.9258-0.19141 0.097656-0.38672 0.097656-0.57813 0.19141-21.918 8.6914-49.918 16.027-82.457 20.855-0.19141 0-0.48438 0.097657-0.67578 0.097657-6.2773 0.96484-12.746 1.7383-19.309 2.5117-1.1602 0.097656-2.4141 0.19141-3.5742 0.28906-5.793 0.57812-11.586 1.1602-17.668 1.543-2.8008 0.19141-5.793 0.28906-8.6914 0.48438-4.5391 0.28906-8.9805 0.57812-13.711 0.77344-7.7266 0.097657-15.547 0.29297-23.559 0.29297-8.0156 0-15.836-0.19141-23.461-0.38672-4.6328-0.19141-9.1719-0.48438-13.711-0.77344-2.8984-0.19141-5.793-0.28906-8.6914-0.48438-5.9844-0.38672-11.875-0.96484-17.668-1.543-1.1602-0.097656-2.4141-0.19141-3.4766-0.28906-6.6602-0.67578-13.035-1.543-19.406-2.5117-0.19141 0-0.48438-0.097657-0.67578-0.097657-32.633-4.8281-60.633-12.164-82.551-20.953-0.19141-0.097657-0.28906-0.097657-0.48438-0.19141-3.957-1.6406-7.7227-3.2812-11.297-4.9258-0.48438-0.19141-0.96484-0.38672-1.3516-0.67578-3.1875-1.543-6.1797-3.1875-9.0742-4.7305-0.67578-0.38672-1.4492-0.77344-2.125-1.1602-2.5117-1.4492-4.7305-2.8984-6.8555-4.4414-0.86719-0.57813-1.7383-1.1602-2.5117-1.7383-1.8359-1.3516-3.4766-2.7031-5.0195-4.0547-0.86719-0.77344-1.7383-1.543-2.6055-2.3164-1.2539-1.2539-2.4141-2.5117-3.4766-3.7656-0.77344-0.86719-1.543-1.8359-2.125-2.7031-0.86719-1.1602-1.543-2.3164-2.2188-3.4766-0.57812-0.96484-0.96484-1.9297-1.4492-2.8984-0.48438-1.1602-0.86719-2.3164-1.0625-3.4766-0.38672-1.6367-0.77344-3.2773-0.77344-4.8203v-79.27c1.1602 1.0625 2.5117 2.125 3.7656 3.0898 0.67578 0.67578 1.3516 1.2539 2.0273 1.8359zm216.28-123.59c119.14 0 215.79 42.098 221.78 78.496v0.19141c0.19141 1.1641 0.28516 2.3203 0.28516 3.3828 0 34.277-91.242 72.414-222.07 72.414-130.82 0-222.07-38.137-222.07-72.414 0-1.0625 0.097656-2.2188 0.28906-3.2812v-0.19141c5.8906-36.5 102.64-78.598 221.78-78.598z"/>
 </g>
</svg>
