<?xml version="1.0" encoding="UTF-8"?>
<svg width="700pt" height="700pt" version="1.1" viewBox="0 0 700 700" xmlns="http://www.w3.org/2000/svg" xmlns:xlink="http://www.w3.org/1999/xlink" fill="#ffffff">
 <g>
  <path d="m350 220.86c-32.668 0-59.141 26.559-59.141 59.141s26.559 59.141 59.141 59.141 59.141-26.559 59.141-59.141-26.559-59.141-59.141-59.141zm0 102.24c-23.758 0-43.102-19.344-43.102-43.102s19.344-43.102 43.102-43.102 43.102 19.344 43.102 43.102-19.344 43.102-43.102 43.102z"/>
  <path d="m452.92 342.62-7.8906-7.8906c4.75-8.2305 8.3984-16.969 10.859-26.219h11.113c8.7383 0 15.867-7.1289 15.867-15.781v-25.453c0-8.7383-7.1289-15.781-15.867-15.781h-11.113c-2.4609-9.1641-6.1094-17.902-10.859-26.219l7.9766-7.9766c6.1094-6.1094 6.1094-16.121 0-22.316l-17.988-17.902c-2.9688-2.9688-6.957-4.668-11.113-4.668h-0.085938c-4.2422 0-8.2305 1.6133-11.199 4.668l-7.8906 7.8906c-8.2305-4.75-17.055-8.3984-26.219-10.859l-0.003907-11.199c0-8.7383-7.1289-15.781-15.867-15.781h-25.371c-8.7383 0-15.867 7.1289-15.867 15.781v11.199c-9.1641 2.4609-17.902 6.1094-26.219 10.859l-7.8906-7.8906c-6.1953-6.1953-16.207-6.1953-22.316 0l-18.074 17.988c-6.1094 6.1953-6.1094 16.207 0 22.316l7.9766 7.9766c-4.75 8.2305-8.3984 17.055-10.859 26.133h-11.109c-8.7383 0-15.781 7.1289-15.781 15.781v25.371c0 8.7383 7.043 15.781 15.781 15.781h11.199c2.4609 9.1641 6.1094 17.988 10.859 26.219l-7.8906 7.8906c-2.9688 2.9688-4.668 6.957-4.668 11.199s1.6133 8.2305 4.668 11.199l17.988 17.988c6.1953 6.1953 16.207 6.1953 22.398 0l7.8906-7.8906c8.2305 4.75 16.969 8.3984 26.219 10.859v11.199c0 8.7383 7.1289 15.781 15.867 15.781h25.371c8.7383 0 15.867-7.1289 15.867-15.781v-11.199c9.1641-2.4609 17.902-6.1094 26.219-10.859l7.8906 7.8906c2.9688 2.9688 6.957 4.668 11.199 4.668h0.085938c4.2422 0 8.2305-1.6953 11.113-4.668l17.988-17.988c5.8555-6.1094 5.8555-16.121-0.25391-22.316zm-11.199-43.781c-2.4609 11.793-6.957 22.738-13.492 32.582-2.1211 3.2227-1.6953 7.3828 1.0195 10.098l12.387 12.047-17.648 17.988-12.387-12.387c-2.7148-2.7148-6.957-3.1406-10.098-1.0195-10.012 6.6172-20.957 11.113-32.668 13.574-3.7344 0.76172-6.4492 4.0742-6.4492 7.8906l0.25391 17.223-25.113 0.25391v-17.48c0-3.8164-2.7148-7.1289-6.4492-7.8906-11.625-2.375-22.57-6.957-32.582-13.574-1.3594-0.93359-2.8867-1.3594-4.4141-1.3594-2.0352 0-4.1562 0.76172-5.6836 2.375l-12.047 12.387-17.902-17.562 12.387-12.387c2.7148-2.7148 3.1406-6.8711 1.0195-10.098-6.5352-10.012-11.113-20.957-13.492-32.668-0.76172-3.7344-4.0742-6.4492-7.8906-6.4492l-17.309 0.25391-0.25391-25.113h17.562c3.8164 0 7.1289-2.7148 7.8906-6.4492 2.375-11.625 6.957-22.57 13.492-32.582 2.1211-3.1406 1.6953-7.3828-1.0195-10.098l-12.387-12.133 17.648-17.988 12.387 12.387c2.7148 2.7148 6.957 3.1406 10.098 1.0195 10.012-6.6172 20.957-11.113 32.582-13.574 3.7344-0.76172 6.4492-4.0742 6.4492-7.8906l-0.25391-17.223 25.113-0.25391v17.48c0 3.8164 2.7148 7.1289 6.4492 7.8906 11.625 2.375 22.57 6.957 32.668 13.574 3.2227 2.1211 7.3828 1.6953 10.098-1.0195l12.047-12.387 17.988 17.562-12.387 12.387c-2.7148 2.7148-3.1406 6.8711-1.0195 10.098 6.5352 10.012 11.113 21.043 13.492 32.668 0.76172 3.7344 4.0742 6.4492 7.8906 6.4492h17.223l0.25391 24.859h-17.48c-3.9844 0.17578-7.2109 2.8047-7.9727 6.5391z"/>
  <path d="m565.68 36.57h-93.758c-15.527 0-28.086 12.641-28.086 28.086v55.32c0 7.5508 2.8867 14.594 8.2305 19.855l33.344 33.344c5.2617 5.2617 12.473 8.2305 19.855 8.2305h60.496c15.527 0 28.168-12.641 28.168-28.086l0.003906-88.664c-0.082031-15.527-12.727-28.086-28.254-28.086zm12.051 116.75c0 6.6172-5.4297 12.047-12.047 12.047l-60.414 0.003906c-3.1406 0-6.2773-1.2734-8.4844-3.5625l-33.344-33.344c-2.2891-2.2891-3.5625-5.2617-3.5625-8.4844l-0.003906-55.324c0-6.6172 5.4297-12.047 12.047-12.047h93.758c6.6172 0 12.047 5.4297 12.047 12.047z"/>
  <path d="m134.32 181.41h60.496c7.5508 0 14.594-2.8867 19.855-8.2305l33.344-33.344c5.3438-5.3438 8.2305-12.387 8.2305-19.855v-55.32c0-15.527-12.641-28.086-28.168-28.086h-93.758c-15.527 0-28.086 12.641-28.086 28.086v88.668c-0.085938 15.523 12.559 28.082 28.086 28.082zm-12.051-116.75c0-6.6172 5.4297-12.047 12.047-12.047h93.758c6.6172 0 12.047 5.4297 12.047 12.047v55.32c0 3.2227-1.2734 6.2773-3.5625 8.5703l-33.344 33.344c-2.2891 2.2891-5.3438 3.5625-8.5703 3.5625h-60.324c-6.6172 0-12.047-5.4297-12.047-12.047z"/>
  <path d="m214.67 386.82c-5.3438-5.3438-12.387-8.2305-19.855-8.2305h-60.496c-15.527 0-28.086 12.641-28.086 28.168v88.668c0 15.527 12.641 28.168 28.086 28.168h93.758c15.527 0 28.168-12.641 28.168-28.168v-55.32c0-7.3828-2.9688-14.68-8.2305-19.855zm25.453 108.52c0 6.6172-5.4297 12.047-12.047 12.047l-93.758 0.003906c-6.6172 0-12.047-5.4297-12.047-12.047l-0.003906-88.668c0-6.6172 5.4297-12.047 12.047-12.047h60.496c3.2227 0 6.2773 1.2734 8.5703 3.5625l33.344 33.344c2.207 2.207 3.5625 5.3438 3.5625 8.4844l0.003906 55.32z"/>
  <path d="m565.68 378.59h-60.41c-7.3828 0-14.68 2.9688-19.855 8.2305l-33.344 33.344c-5.3438 5.3438-8.2305 12.387-8.2305 19.855v55.32c0 15.441 12.559 28.086 28.086 28.086l93.758 0.25391h0.085938c7.4648 0 14.508-2.8867 19.855-8.2305 5.3438-5.3438 8.2305-12.387 8.2305-19.938l-0.003906-88.836c0-15.527-12.645-28.086-28.172-28.086zm12.051 117.09c0 3.2227-1.2734 6.2773-3.5625 8.5703-2.2891 2.2891-5.2617 3.5625-8.4844 3.5625l-93.758-0.25391c-6.6172 0-12.047-5.4297-12.047-12.047v-55.32c0-3.1406 1.2734-6.2773 3.5625-8.4844l33.344-33.344c2.207-2.207 5.3438-3.5625 8.4844-3.5625h60.496c6.6172 0 12.047 5.4297 12.047 12.047v88.832z"/>
  <path d="m114.21 253.61h73.562c4.4141 0 8.0625-3.5625 8.0625-8.0625 0-4.4961-3.6484-7.9766-8.1484-7.9766h-73.477c-4.4141 0-8.0625 3.5625-8.0625 8.0625 0 4.4961 3.6484 7.9766 8.0625 7.9766z"/>
  <path d="m114.21 322.43h73.562c4.4141 0 8.0625-3.5625 8.0625-8.0625 0-4.4961-3.5625-8.0625-8.0625-8.0625l-73.562 0.003907c-4.4141 0-8.0625 3.5625-8.0625 8.0625 0 4.4922 3.6484 8.0586 8.0625 8.0586z"/>
  <path d="m585.79 237.57h-73.562c-4.4141 0-8.0625 3.5625-8.0625 8.0625 0 4.4961 3.5625 8.0625 8.0625 8.0625h73.562c4.4141 0 8.0625-3.5625 8.0625-8.0625 0-4.4961-3.6484-8.0625-8.0625-8.0625z"/>
  <path d="m585.79 306.39h-73.562c-4.4141 0-8.0625 3.5625-8.0625 8.0625 0 4.4961 3.6484 7.9766 8.1484 7.9766h73.562c4.4141 0 8.0625-3.5625 8.0625-8.0625-0.003906-4.4961-3.7344-7.9766-8.1484-7.9766z"/>
  <path d="m384.45 125.75c4.4141 0 8.0625-3.5625 8.0625-8.0625l-0.003907-73.477c0-4.4141-3.5625-8.0625-8.0625-8.0625-4.4141 0-8.0625 3.5625-8.0625 8.0625v73.562c0.003907 4.4141 3.5703 7.9766 8.0664 7.9766z"/>
  <path d="m315.55 125.75c4.4141 0 8.0625-3.5625 8.0625-8.0625v-73.477c0-4.4141-3.5625-8.0625-8.0625-8.0625-4.4102 0-7.9766 3.6484-7.9766 8.0625v73.562c0 4.4141 3.5664 7.9766 7.9766 7.9766z"/>
  <path d="m384.45 434.25c-4.4141 0-8.0625 3.5625-8.0625 8.0625v73.562c0 4.4141 3.5625 8.0625 8.0625 8.0625 4.4141 0 8.0625-3.5625 8.0625-8.0625v-73.562c-0.085938-4.5-3.6523-8.0625-8.0625-8.0625z"/>
  <path d="m315.55 434.25c-4.4141 0-8.0625 3.5625-8.0625 8.0625v73.562c0 4.4141 3.5625 8.0625 8.0625 8.0625 4.4141 0 8.0625-3.5625 8.0625-8.0625v-73.562c0-4.5-3.5664-8.0625-8.0625-8.0625z"/>
 </g>
</svg>
