<?xml version="1.0" encoding="UTF-8"?>
<svg width="700pt" height="700pt" version="1.1" viewBox="0 0 700 700" xmlns="http://www.w3.org/2000/svg" xmlns:xlink="http://www.w3.org/1999/xlink">
 <g>
  <path d="m460.01 374.95h-329.4c-3.4844 0-6.2227-2.7383-6.2227-6.2227 0-3.4844 2.7383-6.2227 6.2227-6.2227h329.41c3.4844 0 6.2227 2.7383 6.2227 6.2227-0.003906 3.4883-2.7422 6.2227-6.2266 6.2227z"/>
  <path d="m218.21 374.95h-67.449c-3.4844 0-6.2227-2.7383-6.2227-6.2227v-146.22c0-8.7109 7.0938-15.93 15.93-15.93h48.16c8.7109 0 15.93 7.0938 15.93 15.93v146.22c-0.125 3.4844-2.8633 6.2188-6.3477 6.2188zm-61.227-12.441h55.004v-140c0-1.8672-1.6172-3.4844-3.4844-3.4844h-48.16c-1.8672 0-3.4844 1.6172-3.4844 3.4844v140z"/>
  <path d="m329.09 374.95h-67.449c-3.4844 0-6.2227-2.7383-6.2227-6.2227v-205.58c0-8.8359 7.2188-16.055 16.055-16.055h47.91c8.8359 0 16.055 7.2188 16.055 16.055v205.58c-0.125 3.4844-2.8633 6.2188-6.3477 6.2188zm-61.227-12.441h55.004v-199.36c0-1.9922-1.6172-3.6094-3.6094-3.6094h-47.91c-1.9922 0-3.6094 1.6172-3.6094 3.6094z"/>
  <path d="m439.97 374.95h-67.449c-3.4844 0-6.2227-2.7383-6.2227-6.2227v-273.03c0-8.8359 7.2188-15.93 16.055-15.93h47.91c8.8359 0 16.055 7.2188 16.055 15.93v273.03c-0.125 3.4844-2.8633 6.2188-6.3477 6.2188zm-61.227-12.441h55.004v-266.81c0-1.9922-1.6172-3.4844-3.6094-3.4844h-47.91c-1.8672 0-3.6094 1.6172-3.6094 3.4844z"/>
  <path d="m184.49 188.29c-11.82 0-21.527-9.707-21.527-21.527 0-11.82 9.707-21.527 21.527-21.527 11.82 0 21.527 9.707 21.527 21.527 0.003906 11.82-9.7031 21.527-21.527 21.527zm0-30.613c-4.9766 0-9.0859 4.1055-9.0859 9.0859 0 4.9766 4.1055 9.0859 9.0859 9.0859 4.9766 0 9.0859-4.1055 9.0859-9.0859 0-4.9805-4.1094-9.0859-9.0859-9.0859z"/>
  <path d="m295.37 128.8c-11.82 0-21.527-9.707-21.527-21.527 0-11.824 9.707-21.406 21.527-21.406 11.82 0 21.527 9.707 21.527 21.527 0.003907 11.824-9.7031 21.406-21.527 21.406zm0-30.488c-4.9766 0-9.0859 4.1055-9.0859 9.0859 0 4.9766 4.1055 9.0859 9.0859 9.0859 4.9766 0 9.0859-4.1055 9.0859-9.0859 0-4.9805-4.1055-9.0859-9.0859-9.0859z"/>
  <path d="m406.25 61.352c-11.82 0-21.527-9.707-21.527-21.527 0-11.82 9.707-21.527 21.527-21.527s21.527 9.707 21.527 21.527c0 11.82-9.707 21.527-21.527 21.527zm0-30.613c-4.9766 0-9.0859 4.1055-9.0859 9.0859 0 4.9766 4.1055 9.0859 9.0859 9.0859 4.9766 0 9.0859-4.1055 9.0859-9.0859-0.003907-4.9805-4.1094-9.0859-9.0859-9.0859z"/>
  <path d="m197.93 165.76c-2.2383 0-4.3555-1.2461-5.4766-3.2344-1.6172-2.9883-0.49609-6.8438 2.4883-8.4609l84-45.051c2.9883-1.6172 6.8438-0.49609 8.4609 2.4883 1.6172 2.9883 0.49609 6.8438-2.4883 8.4609l-84 45.051c-0.99219 0.49609-1.9883 0.74609-2.9844 0.74609zm110.51-60.234c-2.1172 0-4.1055-0.99609-5.3516-2.9883-1.7422-2.9883-0.87109-6.7188 2.1172-8.5859l84.746-51.645c2.9883-1.7422 6.7188-0.87109 8.5859 2.1172 1.7422 2.9883 0.87109 6.7188-2.1172 8.5859l-84.746 51.645c-0.99609 0.625-2.1172 0.87109-3.2344 0.87109z"/>
  <path d="m203.65 131.54h-122.08c-3.4844 0-6.2227-2.7383-6.2227-6.2227s2.7383-6.2227 6.2227-6.2227h122.08c3.4844 0 6.2227 2.7383 6.2227 6.2227s-2.7383 6.2227-6.2227 6.2227z"/>
  <path d="m251.19 96.195h-169.62c-3.4844 0-6.2227-2.7383-6.2227-6.2227s2.7383-6.2227 6.2227-6.2227h169.62c3.4844 0 6.2227 2.7383 6.2227 6.2227s-2.8633 6.2227-6.2227 6.2227z"/>
  <path d="m310.55 60.852h-228.98c-3.4844 0-6.2227-2.7383-6.2227-6.2227s2.7383-6.2227 6.2227-6.2227h229.1c3.4844 0 6.2227 2.7383 6.2227 6.2227-0.125 3.3633-2.8633 6.2227-6.3477 6.2227z"/>
  <path d="m483.03 465.05h-375.32c-17.797 0-32.355-14.559-32.355-32.355v-233.96c0-17.922 14.559-32.355 32.355-32.355h62.719c3.4844 0 6.2227 2.7383 6.2227 6.2227s-2.7383 6.2227-6.2227 6.2227h-62.719c-10.949 0-19.91 8.9609-19.91 19.91v233.83c0 10.949 8.9609 19.91 19.91 19.91h375.32c10.949 0 19.91-8.9609 19.91-19.91v-203.09c0-3.4844 2.7383-6.2227 6.2227-6.2227 3.4844 0 6.2227 2.7383 6.2227 6.2227v203.22c0 17.793-14.559 32.355-32.355 32.355zm-17.422-286.22h-25.637c-3.4844 0-6.2227-2.7383-6.2227-6.2227s2.7383-6.2227 6.2227-6.2227h25.637c3.4844 0 6.2227 2.7383 6.2227 6.2227s-2.7383 6.2227-6.2227 6.2227zm-93.086 0h-43.43c-3.4844 0-6.2227-2.7383-6.2227-6.2227s2.7383-6.2227 6.2227-6.2227h43.43c3.4844 0 6.2227 2.7383 6.2227 6.2227s-2.7383 6.2227-6.2227 6.2227zm-110.88 0h-62.969c-3.4844 0-6.2227-2.7383-6.2227-6.2227s2.7383-6.2227 6.2227-6.2227h62.969c3.4844 0 6.2227 2.7383 6.2227 6.2227s-2.8633 6.2227-6.2227 6.2227z"/>
  <path d="m509.16 411.04h-427.59c-3.4844 0-6.2227-2.7383-6.2227-6.2227s2.7383-6.2227 6.2227-6.2227h427.71c3.4844 0 6.2227 2.7383 6.2227 6.2227s-2.8633 6.2227-6.3477 6.2227z"/>
  <path d="m372.03 543.57h-153.44c-2.2383 0-4.3555-1.2461-5.4766-3.1094-1.1211-1.8672-1.1211-4.3555 0.125-6.2227l47.039-78.523c1.7422-2.9883 5.6016-3.8594 8.5859-2.1172 2.9883 1.7422 3.8594 5.6016 2.1172 8.5859l-41.441 69.066h131.41l-41.441-69.066c-1.7422-2.9883-0.74609-6.7188 2.1172-8.5859 2.9883-1.7422 6.7188-0.74609 8.5859 2.1172l47.164 78.523c1.1211 1.8672 1.2461 4.3555 0.125 6.2227-1.1172 1.8633-3.2344 3.1094-5.4727 3.1094z"/>
  <path d="m328.84 438.04h-67.074c-3.4844 0-6.2227-2.7383-6.2227-6.2227 0-3.4844 2.7383-6.2227 6.2227-6.2227l67.074 0.003906c3.4844 0 6.2227 2.7383 6.2227 6.2227s-2.7383 6.2188-6.2227 6.2188z"/>
  <path d="m541.89 242.91c-28.871 0-56.996-14.934-72.551-41.812-23.023-39.945-9.332-91.094 30.613-114.12 11.574-6.7188 24.141-10.453 37.457-11.074 1.9922-0.125 3.8594 0.74609 5.1016 2.2383 1.2461 1.4922 1.7422 3.6094 1.1211 5.4766l-23.645 88.105 88.105 23.645c1.8672 0.49609 3.4844 1.8672 4.2305 3.7344s0.49609 3.9805-0.62109 5.6016c-7.2188 11.199-16.801 20.16-28.375 26.879-12.941 7.7188-27.254 11.324-41.438 11.324zm-12.445-153.56c-8.0898 1.3672-15.93 4.2305-23.148 8.4609-33.973 19.664-45.672 63.219-26.008 97.066 19.664 33.848 63.219 45.672 97.066 26.008 7.3438-4.2305 13.688-9.457 18.914-15.805l-85.246-22.898c-1.6172-0.375-2.9883-1.4922-3.7344-2.8633-0.74609-1.3672-0.99609-3.1094-0.62109-4.7305z"/>
  <path d="m616.44 185.55c-0.49609 0-1.1211-0.125-1.6172-0.25l-74.668-20.035c-1.6172-0.375-2.9883-1.4922-3.7344-2.8633-0.74609-1.3672-0.99609-3.1094-0.62109-4.7305l20.035-74.668c0.87109-3.3594 4.3555-5.3516 7.5898-4.3555 21.527 5.7227 39.574 19.664 50.773 38.949 11.199 19.289 14.188 41.812 8.3359 63.344-0.375 1.6172-1.4922 2.9883-2.8633 3.7344-0.99219 0.625-2.1133 0.875-3.2305 0.875zm-67.078-30.613 62.348 16.676c2.9883-16.426 0-33.227-8.4609-47.91-8.4609-14.684-21.527-25.512-37.207-31.234z"/>
 </g>
</svg>
