<svg xmlns="http://www.w3.org/2000/svg" width="20" height="15.88"><path d="M2.37 3.24a.75.75 0 00-.25-.65L.25.34V0h5.8l4.48 9.83L14.47 0H20v.34l-1.6 1.53c-.13.1-.2.28-.17.45v11.24c-.03.17.04.35.17.45l1.56 1.53v.34h-7.84v-.34l1.61-1.57c.16-.15.16-.2.16-.44V4.44L9.4 15.84h-.6L3.57 4.44v7.64c-.07.32.06.64.29.86l2.1 2.57v.33H0v-.33l2.1-2.57a.94.94 0 00.27-.86z"/><path d="M.02 15.692c0-.07.526-.768 1.168-1.551.702-.857 1.19-1.545 1.225-1.729.032-.168.044-2.387.027-4.932l-.03-4.627-1.042-1.257C.794.905.325.275.325.196c0-.12.456-.139 2.86-.116l2.86.027 2.201 4.83c1.21 2.657 2.239 4.831 2.286 4.831.047 0 .96-2.185 2.027-4.856L14.5.056h2.726c2.297 0 2.727.023 2.727.146 0 .08-.39.503-.864.94l-.864.796v6.018l-.001 6.018.863.796c.475.437.864.852.865.922 0 .1-.85.127-3.915.127-2.26 0-3.915-.039-3.915-.092 0-.05.412-.498.915-.994l.916-.902V9.11c0-2.705-.038-4.68-.09-4.625-.048.053-1.015 2.453-2.147 5.334-1.132 2.88-2.127 5.411-2.212 5.624-.13.326-.196.382-.418.356-.244-.029-.462-.463-2.86-5.699C4.8 6.983 3.595 4.431 3.551 4.43c-.044 0-.067 1.842-.05 4.095l.028 4.097 1.195 1.459c.657.803 1.195 1.522 1.195 1.599 0 .114-.52.139-2.95.139-2.291 0-2.949-.028-2.948-.127z" fill="#587cf1"/></svg>