<svg xmlns="http://www.w3.org/2000/svg" fill="#587cf1" width="122.8" height="122.8"><path d="M25.8 77.6c0 7.1-5.8 12.9-12.9 12.9C5.8 90.5 0 84.7 0 77.6c0-7.1 5.8-12.9 12.9-12.9h12.9zm6.5 0c0-7.1 5.8-12.9 12.9-12.9 7.1 0 12.9 5.8 12.9 12.9v32.3c0 7.1-5.8 12.9-12.9 12.9-7.1 0-12.9-5.8-12.9-12.9zm12.9-51.8c-7.1 0-12.9-5.8-12.9-12.9C32.3 5.8 38.1 0 45.2 0c7.1 0 12.9 5.8 12.9 12.9v12.9zm0 6.5c7.1 0 12.9 5.8 12.9 12.9 0 7.1-5.8 12.9-12.9 12.9H12.9C5.8 58.1 0 52.3 0 45.2c0-7.1 5.8-12.9 12.9-12.9zM97 45.2c0-7.1 5.8-12.9 12.9-12.9 7.1 0 12.9 5.8 12.9 12.9 0 7.1-5.8 12.9-12.9 12.9H97zm-6.5 0c0 7.1-5.8 12.9-12.9 12.9-7.1 0-12.9-5.8-12.9-12.9V12.9C64.7 5.8 70.5 0 77.6 0c7.1 0 12.9 5.8 12.9 12.9zM77.6 97c7.1 0 12.9 5.8 12.9 12.9 0 7.1-5.8 12.9-12.9 12.9-7.1 0-12.9-5.8-12.9-12.9V97zm0-6.5c-7.1 0-12.9-5.8-12.9-12.9 0-7.1 5.8-12.9 12.9-12.9h32.3c7.1 0 12.9 5.8 12.9 12.9 0 7.1-5.8 12.9-12.9 12.9z"/></svg>
