<?xml version="1.0" encoding="UTF-8" standalone="no"?>
<svg
   xmlns:dc="http://purl.org/dc/elements/1.1/"
   xmlns:cc="http://creativecommons.org/ns#"
   xmlns:rdf="http://www.w3.org/1999/02/22-rdf-syntax-ns#"
   xmlns:svg="http://www.w3.org/2000/svg"
   xmlns="http://www.w3.org/2000/svg"
   xmlns:sodipodi="http://sodipodi.sourceforge.net/DTD/sodipodi-0.dtd"
   xmlns:inkscape="http://www.inkscape.org/namespaces/inkscape"
   version="1.1"
   width="20"
   height="16.255978"
   viewBox="0 0 20 16.255978"
   id="svg4"
   sodipodi:docname="icon-github.svg"
   inkscape:version="0.92.2 5c3e80d, 2017-08-06">
  <metadata
     id="metadata10">
    <rdf:RDF>
      <cc:Work
         rdf:about="">
        <dc:format>image/svg+xml</dc:format>
        <dc:type
           rdf:resource="http://purl.org/dc/dcmitype/StillImage" />
        <dc:title />
      </cc:Work>
    </rdf:RDF>
  </metadata>
  <defs
     id="defs8" />
  <sodipodi:namedview
     pagecolor="#ffffff"
     bordercolor="#666666"
     borderopacity="1"
     objecttolerance="10"
     gridtolerance="10"
     guidetolerance="10"
     inkscape:pageopacity="0"
     inkscape:pageshadow="2"
     inkscape:window-width="1280"
     inkscape:window-height="755"
     id="namedview6"
     showgrid="false"
     fit-margin-top="0"
     fit-margin-left="0"
     fit-margin-right="0"
     fit-margin-bottom="0"
     inkscape:zoom="19.666667"
     inkscape:cx="12.487906"
     inkscape:cy="9.0788554"
     inkscape:window-x="0"
     inkscape:window-y="1"
     inkscape:window-maximized="1"
     inkscape:current-layer="svg4" />
  <path
     d="m 18.38,4.1759786 c 0.16,-0.4 0.68,-1.99 -0.17,-4.14000002 0,0 -1.31,-0.39 -4.3,1.61000002 -1.25,-0.33 -2.58,-0.38 -3.91,-0.38 -1.32,0 -2.66,0.05 -3.91,0.38 C 3.1,-0.38402142 1.79,0.03597858 1.79,0.03597858 0.94,2.1859786 1.46,3.7759786 1.63,4.1759786 c -1.02,1.09 -1.63,2.47 -1.63,4.19 0,6.4400004 4.16,7.8900004 10,7.8900004 5.79,0 10,-1.45 10,-7.8900004 0,-1.72 -0.61,-3.1 -1.62,-4.19 M 10,15.025979 c -4.12,0 -7.47,-0.19 -7.47,-4.19 0,-0.9500004 0.47,-1.8500004 1.27,-2.5800004 1.34,-1.23 3.63,-0.58 6.2,-0.58 2.59,0 4.85,-0.65 6.2,0.58 0.8,0.73 1.3,1.62 1.3,2.5800004 0,3.99 -3.37,4.19 -7.5,4.19 M 6.86,8.7659786 c -0.82,0 -1.5,1 -1.5,2.2200004 0,1.23 0.68,2.24 1.5,2.24 0.83,0 1.5,-1 1.5,-2.24 0,-1.2300004 -0.67,-2.2200004 -1.5,-2.2200004 m 6.28,0 c -0.83,0 -1.5,0.99 -1.5,2.2200004 0,1.24 0.67,2.24 1.5,2.24 0.82,0 1.5,-1 1.5,-2.24 0,-1.2300004 -0.64,-2.2200004 -1.5,-2.2200004 z"
     id="path2"
     inkscape:connector-curvature="0"
     style="fill:#587cf1;fill-opacity:1" />
</svg>
