<svg fill="#587cf1" xmlns="http://www.w3.org/2000/svg" width="20" height="17"><path d="M19.41 2.402a8.486 8.486 0 01-.295.08c-.603.154-.658-.048-.222-.493a4.05 4.05 0 00.518-.65c.336-.525.044-.754-.527-.509a8.252 8.252 0 01-.622.238c-.59.199-1.425-.101-1.95-.435C15.649.21 14.896 0 14.052 0c-1.183 0-2.19.419-3.024 1.255-.833.837-1.25 1.848-1.25 3.035 0 .162.009.327.027.494.03.272-.426.469-1.041.381a11.796 11.796 0 01-3.796-1.214A12.174 12.174 0 011.82 1.627c-.434-.446-1.022-.408-1.185.195A4.314 4.314 0 00.49 2.948c0 .735.172 1.417.516 2.046.17.312.371.596.601.849.387.426.328.674-.21.522-.54-.151-.934-.376-.934-.362v.027c0 1.036.324 1.946.973 2.73a4.25 4.25 0 001.391 1.117c.557.277.817.432.505.472a4.401 4.401 0 01-.972.02c-.222-.02-.263.446.075.97.269.416.613.783 1.031 1.1.426.321.885.552 1.377.693.598.171.718.483.185.804-1.32.794-2.78 1.192-4.38 1.192-.18 0-.352-.005-.517-.012-.285-.014-.094.238.457.527C2.308 16.548 4.172 17 6.178 17c1.518 0 2.942-.241 4.274-.724 1.332-.482 2.47-1.129 3.414-1.939a12.96 12.96 0 002.441-2.795 12.492 12.492 0 001.528-3.3 12.238 12.238 0 00.5-3.726c-.003-.154.404-.571.857-.998.205-.193.4-.395.586-.608.411-.468.23-.683-.368-.508z"/></svg>