<svg width="232" height="228" fill="none" xmlns="http://www.w3.org/2000/svg"><path d="M198.821 125.463a7.693 7.693 0 01-2.227 5.419 7.573 7.573 0 01-5.376 2.245 7.575 7.575 0 01-5.376-2.245 7.693 7.693 0 01-2.227-5.419V57c0-2.032.801-3.981 2.227-5.418a7.573 7.573 0 015.376-2.245c2.017 0 3.95.807 5.376 2.245A7.693 7.693 0 01198.821 57v68.463zm-2.639 47.437c-1.005 1.013-29.28 24.763-81.118 24.763-51.837 0-79.923-23.623-81.117-24.637a7.525 7.525 0 01-1.824-2.303 7.588 7.588 0 01.944-8.337 7.587 7.587 0 015.173-2.63 7.567 7.567 0 015.509 1.807c.44.317 25.699 20.963 71.253 20.963s71.001-20.773 71.252-20.963a7.686 7.686 0 0110.745.823 7.573 7.573 0 011.78 5.445 7.56 7.56 0 01-2.534 5.132l-.063-.063zM31.245 57a7.75 7.75 0 012.53-5.314 7.629 7.629 0 015.513-1.969 7.576 7.576 0 014.968 2.256A7.692 7.692 0 0146.45 57v68.337a7.693 7.693 0 01-2.226 5.418A7.57 7.57 0 0138.848 133a7.57 7.57 0 01-5.376-2.245 7.693 7.693 0 01-2.227-5.418V57zm38.14-15.2a7.75 7.75 0 012.53-5.314 7.63 7.63 0 015.512-1.969 7.576 7.576 0 014.969 2.256A7.693 7.693 0 0184.59 41.8v101.333a7.694 7.694 0 01-2.227 5.419 7.573 7.573 0 01-5.376 2.244 7.573 7.573 0 01-5.375-2.244 7.694 7.694 0 01-2.227-5.419V41.8zm38.328-3.8c0-2.032.801-3.981 2.227-5.418a7.572 7.572 0 015.376-2.245c2.016 0 3.95.808 5.376 2.245A7.693 7.693 0 01122.919 38v110.2a7.696 7.696 0 01-2.227 5.419 7.574 7.574 0 01-5.376 2.244 7.572 7.572 0 01-5.376-2.244 7.696 7.696 0 01-2.227-5.419V38zm37.7 3.8c0-2.032.801-3.981 2.227-5.418a7.57 7.57 0 015.376-2.245c2.016 0 3.95.807 5.376 2.245a7.697 7.697 0 012.226 5.418v101.333a7.696 7.696 0 01-2.226 5.419 7.574 7.574 0 01-5.376 2.244 7.57 7.57 0 01-5.376-2.244 7.693 7.693 0 01-2.227-5.419V41.8zM200.895 0H29.485a28.204 28.204 0 00-10.897 2.113 28.382 28.382 0 00-9.262 6.16 28.639 28.639 0 00-6.214 9.268A28.823 28.823 0 00.896 28.5V199.5c.017 3.764.77 7.489 2.216 10.96a28.644 28.644 0 006.214 9.267 28.379 28.379 0 009.262 6.16 28.195 28.195 0 0010.898 2.112h171.409c3.729.025 7.427-.69 10.882-2.106a28.364 28.364 0 009.255-6.144 28.624 28.624 0 006.218-9.246 28.827 28.827 0 002.234-10.94V28.5a28.843 28.843 0 00-2.21-10.945 28.65 28.65 0 00-6.198-9.26 28.374 28.374 0 00-9.241-6.164 28.203 28.203 0 00-10.878-2.13" fill="#fff"/></svg>